<svg width="414" height="896" viewBox="0 0 414 896" fill="none" xmlns="http://www.w3.org/2000/svg">
<rect width="414" height="896" fill="#E5E5E5"/>
<g clip-path="url(#clip0_0_1)">
<rect width="414" height="896" fill="white"/>
<g clip-path="url(#clip1_0_1)">
<path d="M120.013 122.176C116.044 123.687 111.68 127.951 110.301 133.308C108.556 140.092 115.82 142.961 116.415 142.022C117.117 140.916 115.114 140.543 114.702 137.022C114.169 132.476 116.495 127.395 119.422 125.166C119.966 124.752 119.94 125.328 119.94 126.394C119.94 128.301 119.824 145.418 119.824 148.99C119.824 153.824 119.605 155.35 119.21 156.858C118.81 158.387 118.168 159.419 118.654 159.817C119.199 160.262 121.522 159.204 122.867 157.498C124.479 155.452 125.044 152.995 125.145 150.327C125.268 147.11 125.262 142.006 125.268 139.095C125.273 136.425 125.317 128.607 125.216 123.906C125.192 122.754 121.673 121.544 120.013 122.176ZM303.101 147.569C302.525 147.569 302.263 148.109 302.045 149.017C301.291 152.174 300.499 152.887 299.476 152.887C298.335 152.887 297.308 151.323 297.045 148.194C296.837 145.734 296.871 141.203 297.136 136.697C297.19 135.771 296.909 134.855 294.176 133.953C293 133.564 291.291 132.993 290.44 134.86C288.036 140.135 287.095 144.323 286.873 146.023C286.862 146.111 286.743 146.129 286.722 145.923C286.581 144.561 286.266 142.085 286.227 136.884C286.219 135.869 285.982 135.005 284.75 134.297C283.95 133.838 281.521 133.027 280.647 133.992C279.889 134.782 279.011 136.908 278.1 139.427C277.359 141.474 276.842 142.859 276.842 142.859C276.842 142.859 276.852 137.334 276.861 135.239C276.865 134.448 276.268 134.184 276.088 134.137C275.279 133.923 273.683 133.566 273.006 133.566C272.17 133.566 271.965 133.991 271.965 134.61C271.965 134.691 271.833 141.884 271.833 146.913C271.833 147.132 271.833 147.37 271.834 147.624C271.372 149.935 269.873 153.074 268.243 153.074C266.611 153.074 265.841 151.762 265.841 145.765C265.841 142.268 265.956 140.746 266.013 138.216C266.046 136.759 266.11 135.64 266.106 135.386C266.094 134.607 264.612 134.215 263.923 134.07C263.23 133.924 262.628 133.867 262.158 133.891C261.493 133.925 261.022 134.322 261.022 134.867C261.022 135.16 261.026 135.716 261.026 135.716C260.169 134.492 258.79 133.64 257.874 133.393C255.404 132.727 252.826 133.318 250.882 135.79C249.337 137.754 248.406 139.979 248.039 143.175C247.771 145.512 247.859 147.882 248.335 149.886C247.759 152.147 246.691 153.074 245.521 153.074C243.822 153.074 242.591 150.554 242.734 146.197C242.828 143.331 243.459 141.319 244.149 138.41C244.443 137.169 244.204 136.52 243.605 135.897C243.055 135.326 241.884 135.035 240.2 135.394C239.001 135.649 237.286 135.924 235.717 136.136C235.717 136.136 235.812 135.792 235.889 135.187C236.298 132.013 232.503 132.271 231.292 133.285C230.569 133.89 230.077 134.604 229.89 135.887C229.594 137.923 231.422 138.884 231.422 138.884C230.822 141.379 229.352 144.638 227.835 146.994C227.022 148.256 226.4 149.192 225.597 150.186C225.594 149.817 225.592 149.447 225.591 149.077C225.572 143.832 225.649 139.705 225.683 138.217C225.716 136.76 225.78 135.67 225.776 135.416C225.768 134.847 225.402 134.631 224.64 134.359C223.967 134.119 223.171 133.952 222.346 133.894C221.304 133.82 220.676 134.322 220.693 134.916C220.696 135.028 220.696 135.717 220.696 135.717C219.839 134.493 218.46 133.641 217.544 133.394C215.074 132.728 212.496 133.319 210.552 135.791C209.008 137.755 207.996 140.511 207.709 143.152C207.442 145.613 207.492 147.704 207.856 149.465C207.463 151.229 206.334 153.074 205.057 153.074C203.425 153.074 202.496 151.762 202.496 145.766C202.496 142.268 202.612 140.747 202.668 138.217C202.701 136.76 202.765 135.64 202.761 135.387C202.749 134.608 201.267 134.216 200.578 134.07C199.856 133.918 199.233 133.863 198.755 133.895C198.124 133.938 197.681 134.451 197.681 134.834V135.717C196.824 134.493 195.445 133.641 194.528 133.394C192.058 132.728 189.496 133.328 187.537 135.791C186.26 137.396 185.226 139.176 184.694 143.117C184.54 144.255 184.472 145.322 184.481 146.318C183.972 149.149 181.723 152.41 179.883 152.41C178.806 152.41 177.781 150.513 177.781 146.468C177.781 141.081 178.148 133.41 178.21 132.671C178.21 132.671 180.535 132.635 180.985 132.63C182.145 132.619 183.195 132.644 184.739 132.572C185.514 132.536 186.26 130.01 185.46 129.697C185.098 129.555 182.537 129.431 181.522 129.412C180.668 129.394 178.291 129.234 178.291 129.234C178.291 129.234 178.505 124.143 178.555 123.605C178.597 123.156 177.958 122.926 177.593 122.786C176.702 122.444 175.906 122.28 174.963 122.103C173.659 121.859 173.067 122.098 172.952 123.098C172.778 124.616 172.688 129.061 172.688 129.061C171.731 129.061 168.462 128.891 167.505 128.891C166.616 128.891 165.656 132.367 166.886 132.41C168.3 132.46 170.765 132.503 172.399 132.547C172.399 132.547 172.327 140.344 172.327 142.752C172.327 143.008 172.328 143.254 172.33 143.494C171.43 147.754 168.262 150.055 168.262 150.055C168.942 147.237 167.553 145.12 165.05 143.329C164.127 142.668 162.307 141.419 160.27 140.049C160.27 140.049 161.45 138.992 162.496 136.866C163.237 135.36 163.269 133.637 161.449 133.257C158.443 132.629 155.964 134.635 155.224 136.777C154.651 138.437 154.957 139.668 156.079 140.948C156.161 141.041 156.25 141.137 156.342 141.233C155.663 142.422 154.731 144.022 153.941 145.263C151.749 148.709 150.093 151.435 148.842 151.435C147.842 151.435 147.855 148.668 147.855 146.077C147.855 143.843 148.037 140.485 148.182 137.008C148.23 135.858 147.597 135.203 146.536 134.61C145.892 134.249 144.516 133.54 143.72 133.54C142.528 133.54 139.088 133.688 135.838 142.232C135.428 143.309 134.624 145.271 134.624 145.271L134.693 134.996C134.693 134.755 134.552 134.522 134.228 134.363C133.681 134.093 132.218 133.54 130.917 133.54C130.298 133.54 129.988 133.802 129.988 134.324L129.875 150.399C129.875 151.62 129.909 153.045 130.043 153.668C130.175 154.293 130.389 154.8 130.655 155.102C130.92 155.403 131.227 155.633 131.733 155.728C132.204 155.816 134.782 156.117 134.916 155.222C135.077 154.149 135.082 152.988 136.436 148.66C138.544 141.921 141.291 138.633 142.584 137.465C142.809 137.261 143.067 137.249 143.055 137.583C143 139.06 142.806 142.752 142.675 145.888C142.325 154.282 144.005 155.838 146.406 155.838C148.243 155.838 150.833 154.179 153.608 149.98C155.339 147.363 157.019 144.798 158.226 142.949C159.068 143.657 160.011 144.418 160.955 145.232C163.148 147.123 163.867 148.92 163.39 150.624C163.024 151.928 161.649 153.271 159.2 151.965C158.487 151.585 158.182 151.291 157.465 150.861C157.079 150.63 156.491 150.561 156.138 150.803C155.221 151.431 154.697 152.23 154.397 153.219C154.106 154.182 155.167 154.691 156.266 155.136C157.213 155.519 159.248 155.866 160.545 155.905C165.601 156.059 169.652 153.687 172.471 147.568C172.976 152.852 175.124 155.843 178.856 155.843C181.351 155.843 183.853 152.912 184.946 150.028C185.261 151.204 185.725 152.226 186.326 153.09C189.201 157.231 194.78 156.34 197.582 152.824C198.448 151.737 198.581 151.347 198.581 151.347C198.989 154.667 201.931 155.827 203.616 155.827C205.502 155.827 207.45 155.016 208.815 152.223C208.972 152.521 209.147 152.811 209.341 153.09C212.216 157.231 217.795 156.34 220.597 152.824C220.729 152.659 220.844 152.509 220.944 152.375L221.026 154.556L218.447 156.706C214.122 160.308 210.837 163.04 210.595 166.222C210.288 170.278 213.906 171.786 216.647 171.984C219.553 172.193 222.046 170.733 223.577 168.689C224.923 166.891 225.804 163.02 225.74 159.196C225.714 157.665 225.672 155.718 225.638 153.631C227.156 152.029 228.867 150.004 230.441 147.634C232.158 145.051 233.997 141.583 234.939 138.883C234.939 138.883 236.536 138.896 238.242 138.794C238.787 138.762 238.944 138.863 238.843 139.227C238.721 139.665 236.689 146.791 238.544 151.538C239.814 154.787 242.676 155.833 244.374 155.833C246.36 155.833 248.261 154.469 249.279 152.445C249.402 152.67 249.53 152.889 249.67 153.09C252.546 157.231 258.105 156.335 260.927 152.824C261.563 152.032 261.925 151.347 261.925 151.347C262.531 154.783 265.471 155.844 267.155 155.844C268.909 155.844 270.574 155.191 271.925 152.286C271.981 153.565 272.07 154.611 272.21 154.94C272.296 155.142 272.795 155.395 273.157 155.518C274.762 156.058 276.399 155.803 277.004 155.691C277.424 155.614 277.751 155.308 277.796 154.519C277.913 152.445 277.841 148.961 278.533 146.371C279.694 142.025 280.777 140.339 281.291 139.505C281.579 139.038 281.903 138.961 281.915 139.455C281.939 140.457 281.994 143.397 282.444 147.347C282.774 150.253 283.215 151.97 283.554 152.514C284.522 154.068 285.718 154.141 286.691 154.141C287.31 154.141 288.605 153.986 288.49 152.997C288.433 152.515 288.532 149.535 289.677 145.254C290.424 142.458 291.671 139.932 292.12 139.009C292.286 138.668 292.363 138.936 292.361 138.989C292.266 140.914 292.053 147.212 292.916 150.656C294.086 155.323 297.471 155.844 298.65 155.844C301.168 155.844 303.227 154.104 303.921 149.524C304.09 148.421 303.842 147.569 303.101 147.569ZM197.629 144.738C197.485 147.162 196.964 149.188 196.129 150.66C194.618 153.324 191.629 154.168 190.311 150.319C189.361 147.544 189.685 143.759 190.08 141.715C190.667 138.681 192.136 136.53 194.429 136.734C196.784 136.943 197.93 139.694 197.629 144.738ZM220.644 144.773C220.509 147.062 219.857 149.361 219.144 150.66C217.674 153.342 214.6 154.181 213.326 150.32C212.455 147.681 212.664 144.267 213.095 142.116C213.654 139.324 215.009 136.734 217.444 136.734C219.811 136.734 220.978 139.094 220.644 144.773ZM221.245 160.388C221.213 164.564 220.49 168.225 218.939 169.288C216.74 170.796 213.784 169.665 214.396 166.618C214.938 163.922 217.499 161.168 221.251 157.804C221.251 157.804 221.259 158.571 221.245 160.388ZM260.974 144.797C260.846 147.31 260.234 149.274 259.474 150.66C258.004 153.342 254.952 154.175 253.656 150.319C252.95 148.218 252.917 144.707 253.425 141.774C253.942 138.787 255.385 136.53 257.774 136.734C260.131 136.935 261.234 139.694 260.974 144.797Z" fill="black"/>
</g>
<rect x="42" y="237" width="330" height="36" rx="8" fill="#1877F2"/>
<g clip-path="url(#clip2_0_1)">
<path d="M131.341 254.104C131.341 245.877 119.4 239.207 104.671 239.207C89.9409 239.207 78 245.877 78 254.104C78 261.539 87.7531 267.701 100.503 268.819V258.41H93.7315V254.104H100.503V250.822C100.503 247.088 104.485 245.026 110.577 245.026C113.495 245.026 116.547 245.317 116.547 245.317V248.983H113.184C109.871 248.983 108.838 250.131 108.838 251.309V254.104H116.235L115.052 258.41H108.838V268.819C121.588 267.701 131.341 261.539 131.341 254.104Z" fill="#1877F2"/>
</g>
<path d="M145.065 259.219C144.937 260.584 144.433 261.65 143.554 262.418C142.675 263.18 141.506 263.561 140.047 263.561C139.027 263.561 138.128 263.32 137.349 262.84C136.575 262.354 135.978 261.665 135.556 260.774C135.134 259.884 134.914 258.85 134.896 257.672V256.477C134.896 255.27 135.11 254.206 135.538 253.286C135.966 252.366 136.578 251.657 137.375 251.159C138.178 250.661 139.104 250.412 140.152 250.412C141.564 250.412 142.701 250.796 143.562 251.563C144.424 252.331 144.925 253.415 145.065 254.815H142.851C142.745 253.896 142.476 253.233 142.042 252.829C141.614 252.419 140.984 252.214 140.152 252.214C139.186 252.214 138.441 252.568 137.92 253.277C137.404 253.98 137.141 255.015 137.129 256.38V257.514C137.129 258.896 137.375 259.951 137.867 260.678C138.365 261.404 139.092 261.768 140.047 261.768C140.92 261.768 141.576 261.571 142.016 261.179C142.455 260.786 142.733 260.133 142.851 259.219H145.065ZM146.454 258.542C146.454 257.61 146.639 256.772 147.008 256.028C147.377 255.278 147.896 254.704 148.563 254.306C149.231 253.901 149.999 253.699 150.866 253.699C152.149 253.699 153.189 254.112 153.986 254.938C154.789 255.765 155.223 256.86 155.287 258.226L155.296 258.727C155.296 259.664 155.114 260.502 154.751 261.24C154.394 261.979 153.878 262.55 153.204 262.954C152.536 263.358 151.763 263.561 150.884 263.561C149.542 263.561 148.467 263.115 147.658 262.225C146.855 261.328 146.454 260.136 146.454 258.647V258.542ZM148.59 258.727C148.59 259.705 148.792 260.473 149.196 261.029C149.601 261.58 150.163 261.855 150.884 261.855C151.604 261.855 152.164 261.574 152.562 261.012C152.967 260.449 153.169 259.626 153.169 258.542C153.169 257.581 152.961 256.819 152.545 256.257C152.135 255.694 151.575 255.413 150.866 255.413C150.169 255.413 149.615 255.691 149.205 256.248C148.795 256.799 148.59 257.625 148.59 258.727ZM159.084 253.875L159.146 254.974C159.849 254.124 160.771 253.699 161.914 253.699C163.895 253.699 164.902 254.833 164.938 257.101V263.385H162.802V257.224C162.802 256.62 162.67 256.175 162.406 255.888C162.148 255.595 161.724 255.448 161.132 255.448C160.271 255.448 159.629 255.838 159.207 256.617V263.385H157.071V253.875H159.084ZM169.798 251.563V253.875H171.477V255.457H169.798V260.766C169.798 261.129 169.868 261.393 170.009 261.557C170.155 261.715 170.413 261.794 170.782 261.794C171.028 261.794 171.277 261.765 171.529 261.706V263.358C171.043 263.493 170.574 263.561 170.123 263.561C168.482 263.561 167.662 262.655 167.662 260.845V255.457H166.098V253.875H167.662V251.563H169.798ZM175.388 263.385H173.252V253.875H175.388V263.385ZM173.12 251.405C173.12 251.077 173.223 250.805 173.428 250.588C173.639 250.371 173.938 250.263 174.324 250.263C174.711 250.263 175.01 250.371 175.221 250.588C175.432 250.805 175.537 251.077 175.537 251.405C175.537 251.728 175.432 251.997 175.221 252.214C175.01 252.425 174.711 252.53 174.324 252.53C173.938 252.53 173.639 252.425 173.428 252.214C173.223 251.997 173.12 251.728 173.12 251.405ZM179.703 253.875L179.765 254.974C180.468 254.124 181.391 253.699 182.533 253.699C184.514 253.699 185.521 254.833 185.557 257.101V263.385H183.421V257.224C183.421 256.62 183.289 256.175 183.025 255.888C182.768 255.595 182.343 255.448 181.751 255.448C180.89 255.448 180.248 255.838 179.826 256.617V263.385H177.69V253.875H179.703ZM193.502 262.453C192.875 263.191 191.984 263.561 190.83 263.561C189.799 263.561 189.017 263.259 188.483 262.655C187.956 262.052 187.692 261.179 187.692 260.036V253.875H189.828V260.01C189.828 261.217 190.329 261.82 191.331 261.82C192.368 261.82 193.068 261.448 193.432 260.704V253.875H195.567V263.385H193.555L193.502 262.453ZM201.931 263.561C200.577 263.561 199.479 263.136 198.635 262.286C197.797 261.431 197.378 260.294 197.378 258.876V258.612C197.378 257.663 197.56 256.816 197.923 256.072C198.292 255.322 198.808 254.739 199.47 254.323C200.132 253.907 200.87 253.699 201.685 253.699C202.979 253.699 203.979 254.112 204.682 254.938C205.391 255.765 205.745 256.934 205.745 258.445V259.307H199.531C199.596 260.092 199.856 260.713 200.313 261.17C200.776 261.627 201.356 261.855 202.054 261.855C203.032 261.855 203.829 261.46 204.444 260.669L205.596 261.768C205.215 262.336 204.705 262.778 204.066 263.095C203.434 263.405 202.722 263.561 201.931 263.561ZM201.676 255.413C201.09 255.413 200.615 255.618 200.252 256.028C199.895 256.438 199.666 257.01 199.566 257.742H203.636V257.584C203.589 256.869 203.398 256.33 203.064 255.967C202.73 255.598 202.268 255.413 201.676 255.413ZM220.247 260.44L221.759 253.875H223.842L221.249 263.385H219.491L217.452 256.854L215.448 263.385H213.69L211.089 253.875H213.172L214.71 260.37L216.661 253.875H218.27L220.247 260.44ZM227.542 263.385H225.406V253.875H227.542V263.385ZM225.274 251.405C225.274 251.077 225.377 250.805 225.582 250.588C225.793 250.371 226.092 250.263 226.479 250.263C226.865 250.263 227.164 250.371 227.375 250.588C227.586 250.805 227.691 251.077 227.691 251.405C227.691 251.728 227.586 251.997 227.375 252.214C227.164 252.425 226.865 252.53 226.479 252.53C226.092 252.53 225.793 252.425 225.582 252.214C225.377 251.997 225.274 251.728 225.274 251.405ZM232.552 251.563V253.875H234.23V255.457H232.552V260.766C232.552 261.129 232.622 261.393 232.763 261.557C232.909 261.715 233.167 261.794 233.536 261.794C233.782 261.794 234.031 261.765 234.283 261.706V263.358C233.797 263.493 233.328 263.561 232.877 263.561C231.236 263.561 230.416 262.655 230.416 260.845V255.457H228.852V253.875H230.416V251.563H232.552ZM237.975 254.912C238.672 254.104 239.554 253.699 240.62 253.699C242.647 253.699 243.676 254.856 243.705 257.171V263.385H241.569V257.25C241.569 256.594 241.426 256.131 241.139 255.861C240.857 255.586 240.441 255.448 239.891 255.448C239.035 255.448 238.396 255.829 237.975 256.591V263.385H235.839V249.885H237.975V254.912ZM257.935 257.962H252.784V263.385H250.561V250.588H258.69V252.381H252.784V256.187H257.935V257.962ZM265.634 263.385C265.54 263.203 265.458 262.907 265.388 262.497C264.708 263.206 263.876 263.561 262.892 263.561C261.937 263.561 261.157 263.288 260.554 262.743C259.95 262.198 259.648 261.524 259.648 260.722C259.648 259.708 260.023 258.932 260.773 258.393C261.529 257.848 262.607 257.575 264.008 257.575H265.317V256.951C265.317 256.459 265.18 256.066 264.904 255.773C264.629 255.475 264.21 255.325 263.647 255.325C263.161 255.325 262.763 255.448 262.452 255.694C262.142 255.935 261.986 256.242 261.986 256.617H259.851C259.851 256.096 260.023 255.609 260.369 255.158C260.715 254.701 261.184 254.344 261.775 254.086C262.373 253.828 263.038 253.699 263.771 253.699C264.884 253.699 265.771 253.98 266.434 254.543C267.096 255.1 267.436 255.885 267.453 256.898V261.188C267.453 262.043 267.573 262.726 267.813 263.235V263.385H265.634ZM263.287 261.847C263.709 261.847 264.104 261.744 264.474 261.539C264.849 261.334 265.13 261.059 265.317 260.713V258.92H264.166C263.375 258.92 262.78 259.058 262.382 259.333C261.983 259.608 261.784 259.998 261.784 260.502C261.784 260.912 261.919 261.24 262.188 261.486C262.464 261.727 262.83 261.847 263.287 261.847ZM273.597 261.855C274.13 261.855 274.572 261.7 274.924 261.39C275.275 261.079 275.463 260.695 275.486 260.238H277.499C277.476 260.83 277.291 261.384 276.945 261.899C276.6 262.409 276.131 262.813 275.539 263.112C274.947 263.411 274.309 263.561 273.623 263.561C272.293 263.561 271.238 263.13 270.459 262.269C269.68 261.407 269.29 260.218 269.29 258.7V258.48C269.29 257.033 269.677 255.876 270.45 255.009C271.224 254.136 272.278 253.699 273.614 253.699C274.745 253.699 275.665 254.03 276.374 254.692C277.089 255.349 277.464 256.213 277.499 257.285H275.486C275.463 256.74 275.275 256.292 274.924 255.94C274.578 255.589 274.136 255.413 273.597 255.413C272.905 255.413 272.372 255.665 271.997 256.169C271.622 256.667 271.432 257.426 271.426 258.445V258.788C271.426 259.819 271.61 260.59 271.979 261.1C272.354 261.604 272.894 261.855 273.597 261.855ZM283.3 263.561C281.946 263.561 280.848 263.136 280.004 262.286C279.166 261.431 278.747 260.294 278.747 258.876V258.612C278.747 257.663 278.929 256.816 279.292 256.072C279.661 255.322 280.177 254.739 280.839 254.323C281.501 253.907 282.239 253.699 283.054 253.699C284.349 253.699 285.348 254.112 286.051 254.938C286.76 255.765 287.114 256.934 287.114 258.445V259.307H280.9C280.965 260.092 281.226 260.713 281.683 261.17C282.146 261.627 282.726 261.855 283.423 261.855C284.401 261.855 285.198 261.46 285.813 260.669L286.965 261.768C286.584 262.336 286.074 262.778 285.436 263.095C284.803 263.405 284.091 263.561 283.3 263.561ZM283.045 255.413C282.459 255.413 281.984 255.618 281.621 256.028C281.264 256.438 281.035 257.01 280.936 257.742H285.005V257.584C284.958 256.869 284.768 256.33 284.434 255.967C284.1 255.598 283.637 255.413 283.045 255.413ZM297.125 258.727C297.125 260.203 296.794 261.378 296.132 262.251C295.476 263.124 294.57 263.561 293.416 263.561C292.303 263.561 291.436 263.159 290.814 262.356L290.709 263.385H288.775V249.885H290.911V254.789C291.526 254.062 292.355 253.699 293.398 253.699C294.559 253.699 295.47 254.13 296.132 254.991C296.794 255.853 297.125 257.057 297.125 258.604V258.727ZM294.989 258.542C294.989 257.511 294.808 256.737 294.444 256.222C294.081 255.706 293.554 255.448 292.862 255.448C291.937 255.448 291.286 255.853 290.911 256.661V260.581C291.292 261.407 291.948 261.82 292.88 261.82C293.548 261.82 294.063 261.571 294.427 261.073C294.79 260.575 294.978 259.822 294.989 258.814V258.542ZM298.522 258.542C298.522 257.61 298.707 256.772 299.076 256.028C299.445 255.278 299.964 254.704 300.632 254.306C301.3 253.901 302.067 253.699 302.935 253.699C304.218 253.699 305.258 254.112 306.055 254.938C306.857 255.765 307.291 256.86 307.355 258.226L307.364 258.727C307.364 259.664 307.183 260.502 306.819 261.24C306.462 261.979 305.946 262.55 305.272 262.954C304.604 263.358 303.831 263.561 302.952 263.561C301.61 263.561 300.535 263.115 299.727 262.225C298.924 261.328 298.522 260.136 298.522 258.647V258.542ZM300.658 258.727C300.658 259.705 300.86 260.473 301.265 261.029C301.669 261.58 302.231 261.855 302.952 261.855C303.673 261.855 304.232 261.574 304.631 261.012C305.035 260.449 305.237 259.626 305.237 258.542C305.237 257.581 305.029 256.819 304.613 256.257C304.203 255.694 303.644 255.413 302.935 255.413C302.237 255.413 301.684 255.691 301.273 256.248C300.863 256.799 300.658 257.625 300.658 258.727ZM308.771 258.542C308.771 257.61 308.955 256.772 309.324 256.028C309.693 255.278 310.212 254.704 310.88 254.306C311.548 253.901 312.315 253.699 313.183 253.699C314.466 253.699 315.506 254.112 316.303 254.938C317.105 255.765 317.539 256.86 317.604 258.226L317.612 258.727C317.612 259.664 317.431 260.502 317.067 261.24C316.71 261.979 316.194 262.55 315.521 262.954C314.853 263.358 314.079 263.561 313.2 263.561C311.858 263.561 310.783 263.115 309.975 262.225C309.172 261.328 308.771 260.136 308.771 258.647V258.542ZM310.906 258.727C310.906 259.705 311.108 260.473 311.513 261.029C311.917 261.58 312.479 261.855 313.2 261.855C313.921 261.855 314.48 261.574 314.879 261.012C315.283 260.449 315.485 259.626 315.485 258.542C315.485 257.581 315.277 256.819 314.861 256.257C314.451 255.694 313.892 255.413 313.183 255.413C312.485 255.413 311.932 255.691 311.521 256.248C311.111 256.799 310.906 257.625 310.906 258.727ZM322.508 259.307L321.559 260.282V263.385H319.423V249.885H321.559V257.672L322.227 256.837L324.854 253.875H327.421L323.888 257.839L327.799 263.385H325.329L322.508 259.307Z" fill="#FFF9F9"/>
<path d="M271.5 883H142.5C141.119 883 140 884.119 140 885.5C140 886.881 141.119 888 142.5 888H271.5C272.881 888 274 886.881 274 885.5C274 884.119 272.881 883 271.5 883Z" fill="black"/>
<path opacity="0.35" fill-rule="evenodd" clip-rule="evenodd" d="M375.086 16.8333C373.973 16.8333 373.533 16.9102 373.078 17.1303C372.695 17.3161 372.397 17.5858 372.192 17.9333C371.949 18.3448 371.864 18.7435 371.864 19.7518V24.2481C371.864 25.2563 371.949 25.655 372.192 26.0666C372.397 26.414 372.695 26.6837 373.078 26.8695C373.533 27.0896 373.973 27.1666 375.086 27.1666H391.826C392.939 27.1666 393.379 27.0896 393.833 26.8695C394.217 26.6837 394.515 26.414 394.72 26.0666C394.963 25.655 395.048 25.2563 395.048 24.2481V19.7518C395.048 18.7435 394.963 18.3448 394.72 17.9333C394.515 17.5858 394.217 17.3161 393.833 17.1303C393.379 16.9102 392.939 16.8333 391.826 16.8333H375.086Z" stroke="black"/>
<path opacity="0.4" d="M396.704 20V24C397.592 23.6612 398.17 22.8731 398.17 22C398.17 21.1269 397.592 20.3388 396.704 20Z" fill="black"/>
<path d="M375.407 18.3333H391.505C392.161 18.3333 392.399 18.3951 392.639 18.5113C392.879 18.6275 393.067 18.7981 393.195 19.0154C393.324 19.2326 393.392 19.4482 393.392 20.0425V23.9573C393.392 24.5517 393.324 24.7672 393.195 24.9845C393.067 25.2018 392.879 25.3723 392.639 25.4885C392.399 25.6047 392.161 25.6666 391.505 25.6666H375.407C374.751 25.6666 374.513 25.6047 374.273 25.4885C374.033 25.3723 373.845 25.2018 373.717 24.9845C373.588 24.7672 373.52 24.5517 373.52 23.9573V20.0425C373.52 19.4482 373.588 19.2326 373.717 19.0154C373.845 18.7981 374.033 18.6275 374.273 18.5113C374.513 18.3951 374.751 18.3333 375.407 18.3333Z" fill="black"/>
<path d="M357.328 18.615C359.784 18.6151 362.147 19.4693 363.927 21.0008C364.061 21.1191 364.275 21.1176 364.407 20.9975L365.688 19.8272C365.755 19.7663 365.792 19.6837 365.792 19.5979C365.791 19.512 365.753 19.4299 365.685 19.3697C361.013 15.3175 353.643 15.3175 348.97 19.3697C348.903 19.4299 348.864 19.512 348.864 19.5978C348.863 19.6837 348.9 19.7662 348.967 19.8272L350.249 20.9975C350.381 21.1178 350.595 21.1193 350.729 21.0008C352.509 19.4691 354.872 18.615 357.328 18.615ZM357.328 22.4226C358.678 22.4226 359.979 22.8765 360.979 23.6963C361.115 23.8126 361.328 23.8101 361.46 23.6906L362.739 22.5203C362.807 22.4589 362.844 22.3756 362.843 22.2891C362.842 22.2025 362.803 22.12 362.734 22.0598C359.688 19.4954 354.971 19.4954 351.925 22.0598C351.856 22.12 351.817 22.2026 351.816 22.2891C351.815 22.3757 351.852 22.459 351.92 22.5203L353.199 23.6906C353.331 23.8101 353.544 23.8126 353.68 23.6963C354.679 22.877 355.98 22.4231 357.328 22.4226ZM359.788 25.2157C359.856 25.1549 359.894 25.0712 359.892 24.9845C359.89 24.8977 359.849 24.8155 359.777 24.7573C358.364 23.675 356.293 23.675 354.879 24.7573C354.808 24.8154 354.766 24.8976 354.764 24.9844C354.762 25.0712 354.8 25.1549 354.868 25.2157L357.083 27.2377C357.147 27.2971 357.236 27.3306 357.328 27.3306C357.421 27.3306 357.509 27.2971 357.574 27.2377L359.788 25.2157Z" fill="black"/>
<path d="M325.68 23.3334H326.784C327.393 23.3334 327.888 23.7811 327.888 24.3334V26.3334C327.888 26.8857 327.393 27.3334 326.784 27.3334H325.68C325.07 27.3334 324.576 26.8857 324.576 26.3334V24.3334C324.576 23.7811 325.07 23.3334 325.68 23.3334ZM330.832 21.3334H331.936C332.545 21.3334 333.04 21.7811 333.04 22.3334V26.3334C333.04 26.8857 332.545 27.3334 331.936 27.3334H330.832C330.222 27.3334 329.728 26.8857 329.728 26.3334V22.3334C329.728 21.7811 330.222 21.3334 330.832 21.3334ZM335.984 19.0001H337.088C337.697 19.0001 338.192 19.4478 338.192 20.0001V26.3334C338.192 26.8857 337.697 27.3334 337.088 27.3334H335.984C335.374 27.3334 334.88 26.8857 334.88 26.3334V20.0001C334.88 19.4478 335.374 19.0001 335.984 19.0001ZM341.136 16.6667H342.24C342.849 16.6667 343.344 17.1145 343.344 17.6667V26.3334C343.344 26.8857 342.849 27.3334 342.24 27.3334H341.136C340.526 27.3334 340.032 26.8857 340.032 26.3334V17.6667C340.032 17.1145 340.526 16.6667 341.136 16.6667Z" fill="black"/>
<path d="M41.9443 21.3125C41.6611 21.6494 41.3218 21.9204 40.9263 22.1255C40.5356 22.3306 40.106 22.4331 39.6372 22.4331C39.022 22.4331 38.4849 22.2817 38.0259 21.979C37.5718 21.6763 37.2202 21.2515 36.9712 20.7046C36.7222 20.1528 36.5977 19.5449 36.5977 18.8809C36.5977 18.168 36.7319 17.5259 37.0005 16.9546C37.2739 16.3833 37.6597 15.9463 38.1577 15.6436C38.6558 15.3408 39.2368 15.1895 39.9009 15.1895C40.9556 15.1895 41.7856 15.585 42.3911 16.376C43.0015 17.1621 43.3066 18.2363 43.3066 19.5986V19.9941C43.3066 22.0693 42.8965 23.5854 42.0762 24.5425C41.2559 25.4946 40.0181 25.9829 38.3628 26.0073H38.0991V24.8647H38.3848C39.5029 24.8452 40.3623 24.5547 40.9629 23.9932C41.5635 23.4268 41.8906 22.5332 41.9443 21.3125ZM39.8569 21.3125C40.311 21.3125 40.7285 21.1733 41.1094 20.895C41.4951 20.6167 41.7759 20.2725 41.9517 19.8623V19.3203C41.9517 18.4316 41.7588 17.709 41.373 17.1523C40.9873 16.5957 40.499 16.3174 39.9082 16.3174C39.3125 16.3174 38.834 16.5469 38.4727 17.0059C38.1113 17.46 37.9307 18.0605 37.9307 18.8076C37.9307 19.5352 38.104 20.1357 38.4507 20.6094C38.8022 21.0781 39.271 21.3125 39.8569 21.3125ZM45.2695 25.2896C45.2695 25.0552 45.3379 24.8599 45.4746 24.7036C45.6162 24.5474 45.8262 24.4692 46.1045 24.4692C46.3828 24.4692 46.5928 24.5474 46.7344 24.7036C46.8809 24.8599 46.9541 25.0552 46.9541 25.2896C46.9541 25.5142 46.8809 25.7021 46.7344 25.8535C46.5928 26.0049 46.3828 26.0806 46.1045 26.0806C45.8262 26.0806 45.6162 26.0049 45.4746 25.8535C45.3379 25.7021 45.2695 25.5142 45.2695 25.2896ZM45.2769 18.8223C45.2769 18.5879 45.3452 18.3926 45.4819 18.2363C45.6235 18.0801 45.8335 18.002 46.1118 18.002C46.3901 18.002 46.6001 18.0801 46.7417 18.2363C46.8882 18.3926 46.9614 18.5879 46.9614 18.8223C46.9614 19.0469 46.8882 19.2349 46.7417 19.3862C46.6001 19.5376 46.3901 19.6133 46.1118 19.6133C45.8335 19.6133 45.6235 19.5376 45.4819 19.3862C45.3452 19.2349 45.2769 19.0469 45.2769 18.8223ZM54.5273 22.4185H56.0068V23.5244H54.5273V26H53.165V23.5244H48.3091V22.7261L53.0845 15.3359H54.5273V22.4185ZM49.8472 22.4185H53.165V17.189L53.0039 17.4819L49.8472 22.4185ZM61.6831 26H60.3208V16.9692L57.5889 17.9727V16.7422L61.4707 15.2847H61.6831V26Z" fill="black"/>
<line x1="42" y1="316.5" x2="162" y2="316.5" stroke="#C5C5C5"/>
<line x1="248" y1="316.5" x2="372" y2="316.5" stroke="#CCCCCC"/>
<path d="M206.441 317.012C206.441 318.057 206.265 318.97 205.914 319.751C205.562 320.528 205.064 321.121 204.419 321.531C203.775 321.941 203.023 322.146 202.164 322.146C201.324 322.146 200.579 321.941 199.93 321.531C199.28 321.116 198.775 320.528 198.414 319.766C198.057 319 197.874 318.113 197.864 317.107V316.338C197.864 315.313 198.042 314.407 198.399 313.621C198.755 312.835 199.258 312.234 199.908 311.819C200.562 311.399 201.309 311.189 202.149 311.189C203.003 311.189 203.755 311.397 204.405 311.812C205.059 312.222 205.562 312.82 205.914 313.606C206.265 314.388 206.441 315.298 206.441 316.338V317.012ZM205.042 316.324C205.042 315.059 204.788 314.09 204.28 313.416C203.772 312.737 203.062 312.398 202.149 312.398C201.26 312.398 200.56 312.737 200.047 313.416C199.539 314.09 199.278 315.027 199.263 316.229V317.012C199.263 318.238 199.52 319.202 200.032 319.905C200.55 320.604 201.26 320.953 202.164 320.953C203.072 320.953 203.775 320.623 204.273 319.964C204.771 319.3 205.027 318.35 205.042 317.115V316.324ZM212.461 317.686H209.957V322H208.543V311.336H212.073C213.274 311.336 214.197 311.609 214.842 312.156C215.491 312.703 215.816 313.499 215.816 314.544C215.816 315.208 215.635 315.787 215.274 316.28C214.917 316.773 214.419 317.142 213.78 317.386L216.285 321.912V322H214.776L212.461 317.686ZM209.957 316.536H212.117C212.815 316.536 213.37 316.355 213.78 315.994C214.195 315.633 214.402 315.149 214.402 314.544C214.402 313.885 214.205 313.379 213.809 313.028C213.418 312.676 212.852 312.498 212.11 312.493H209.957V316.536Z" fill="#0F0E0E" fill-opacity="0.5"/>
<rect x="42" y="516" width="330" height="35" rx="6" fill="#1877F2" fill-opacity="0.36"/>
<path d="M191.937 538.521H196.778V540H190.084V529.336H191.937V538.521ZM197.994 535.964C197.994 535.188 198.148 534.49 198.455 533.87C198.763 533.245 199.195 532.766 199.752 532.434C200.308 532.097 200.948 531.929 201.671 531.929C202.74 531.929 203.607 532.273 204.271 532.961C204.94 533.65 205.301 534.563 205.355 535.701L205.362 536.118C205.362 536.899 205.211 537.598 204.908 538.213C204.61 538.828 204.18 539.304 203.619 539.641C203.062 539.978 202.418 540.146 201.685 540.146C200.567 540.146 199.671 539.775 198.997 539.033C198.328 538.286 197.994 537.292 197.994 536.052V535.964ZM199.774 536.118C199.774 536.934 199.942 537.573 200.279 538.037C200.616 538.496 201.085 538.726 201.685 538.726C202.286 538.726 202.752 538.491 203.084 538.022C203.421 537.554 203.59 536.868 203.59 535.964C203.59 535.164 203.416 534.529 203.07 534.06C202.728 533.591 202.261 533.357 201.671 533.357C201.09 533.357 200.628 533.589 200.286 534.053C199.945 534.512 199.774 535.2 199.774 536.118ZM206.856 535.979C206.856 534.749 207.144 533.767 207.72 533.035C208.301 532.297 209.07 531.929 210.027 531.929C210.931 531.929 211.641 532.244 212.159 532.874L212.239 532.075H213.843V539.758C213.843 540.798 213.518 541.619 212.869 542.219C212.225 542.82 211.353 543.12 210.254 543.12C209.673 543.12 209.104 542.998 208.548 542.754C207.996 542.515 207.576 542.2 207.288 541.809L208.13 540.74C208.677 541.389 209.351 541.714 210.152 541.714C210.743 541.714 211.209 541.553 211.551 541.23C211.892 540.913 212.063 540.444 212.063 539.824V539.29C211.551 539.861 210.867 540.146 210.013 540.146C209.085 540.146 208.326 539.778 207.735 539.041C207.149 538.303 206.856 537.283 206.856 535.979ZM208.628 536.133C208.628 536.929 208.789 537.556 209.112 538.015C209.439 538.469 209.891 538.696 210.467 538.696C211.184 538.696 211.717 538.389 212.063 537.773V534.287C211.726 533.687 211.199 533.386 210.481 533.386C209.895 533.386 209.439 533.618 209.112 534.082C208.789 534.546 208.628 535.229 208.628 536.133ZM222.141 540H220.295V529.336H222.141V540ZM226.198 532.075L226.25 532.991C226.835 532.283 227.604 531.929 228.557 531.929C230.207 531.929 231.047 532.874 231.076 534.763V540H229.296V534.866C229.296 534.363 229.187 533.992 228.967 533.752C228.752 533.508 228.398 533.386 227.905 533.386C227.187 533.386 226.652 533.711 226.301 534.36V540H224.521V532.075H226.198Z" fill="#FFFEFE"/>
<rect x="43" y="367" width="328" height="40" rx="5" fill="#E8E6E6" fill-opacity="0.5" stroke="#E0DDDD" stroke-width="2"/>
<rect x="43" y="417" width="328" height="40" rx="5" fill="#E8E6E6" fill-opacity="0.5" stroke="#E0DDDD" stroke-width="2"/>
<path d="M66.8047 437.636C66.8047 438.698 66.5635 439.546 66.0811 440.181C65.5986 440.812 64.9512 441.127 64.1387 441.127C63.3854 441.127 62.7824 440.879 62.3296 440.384V443.641H60.7871V434.132H62.209L62.2725 434.83C62.7253 434.28 63.341 434.005 64.1196 434.005C64.9575 434.005 65.6134 434.318 66.0874 434.944C66.5656 435.566 66.8047 436.432 66.8047 437.541V437.636ZM65.2686 437.502C65.2686 436.817 65.131 436.273 64.856 435.871C64.5851 435.469 64.1958 435.268 63.688 435.268C63.0575 435.268 62.6047 435.528 62.3296 436.049V439.096C62.6089 439.629 63.0659 439.896 63.7007 439.896C64.1916 439.896 64.5745 439.699 64.8496 439.305C65.1289 438.907 65.2686 438.306 65.2686 437.502ZM72.2192 441C72.1515 440.869 72.0923 440.655 72.0415 440.359C71.5506 440.871 70.9497 441.127 70.2388 441.127C69.549 441.127 68.9862 440.93 68.5503 440.537C68.1144 440.143 67.8965 439.656 67.8965 439.077C67.8965 438.345 68.1673 437.784 68.709 437.395C69.2549 437.001 70.0335 436.804 71.0449 436.804H71.9907V436.354C71.9907 435.998 71.8913 435.715 71.6924 435.503C71.4935 435.287 71.1909 435.179 70.7847 435.179C70.4334 435.179 70.1457 435.268 69.9214 435.446C69.6971 435.619 69.585 435.841 69.585 436.112H68.0425C68.0425 435.736 68.1673 435.384 68.417 435.059C68.6667 434.729 69.0052 434.47 69.4326 434.284C69.8643 434.098 70.3446 434.005 70.8735 434.005C71.6776 434.005 72.3187 434.208 72.7969 434.614C73.2751 435.016 73.5205 435.583 73.5332 436.315V439.413C73.5332 440.031 73.62 440.524 73.7935 440.892V441H72.2192ZM70.5244 439.889C70.8291 439.889 71.1147 439.815 71.3813 439.667C71.6522 439.519 71.8553 439.32 71.9907 439.07V437.775H71.1592C70.5879 437.775 70.1584 437.875 69.8706 438.074C69.5828 438.273 69.439 438.554 69.439 438.918C69.439 439.214 69.5363 439.451 69.731 439.629C69.9299 439.802 70.1943 439.889 70.5244 439.889ZM78.9985 439.134C78.9985 438.859 78.8843 438.649 78.6558 438.505C78.4315 438.361 78.057 438.235 77.5322 438.125C77.0075 438.014 76.5695 437.875 76.2183 437.706C75.4481 437.333 75.063 436.794 75.063 436.087C75.063 435.494 75.3127 434.999 75.812 434.602C76.3114 434.204 76.9461 434.005 77.7163 434.005C78.5373 434.005 79.1995 434.208 79.7031 434.614C80.2109 435.021 80.4648 435.547 80.4648 436.195H78.9224C78.9224 435.899 78.8123 435.653 78.5923 435.458C78.3722 435.26 78.0802 435.16 77.7163 435.16C77.3778 435.16 77.1006 435.238 76.8848 435.395C76.6732 435.552 76.5674 435.761 76.5674 436.023C76.5674 436.26 76.6668 436.444 76.8657 436.576C77.0646 436.707 77.4666 436.84 78.0718 436.976C78.6769 437.107 79.1509 437.265 79.4937 437.452C79.8407 437.634 80.0967 437.854 80.2617 438.112C80.431 438.37 80.5156 438.683 80.5156 439.051C80.5156 439.669 80.2596 440.171 79.7476 440.556C79.2355 440.937 78.5648 441.127 77.7354 441.127C77.1725 441.127 76.6711 441.025 76.231 440.822C75.7909 440.619 75.4481 440.34 75.2026 439.984C74.9572 439.629 74.8345 439.246 74.8345 438.835H76.3325C76.3537 439.199 76.4912 439.481 76.7451 439.68C76.999 439.874 77.3354 439.972 77.7544 439.972C78.1606 439.972 78.4696 439.896 78.6812 439.743C78.8927 439.587 78.9985 439.383 78.9985 439.134ZM85.7144 439.134C85.7144 438.859 85.6001 438.649 85.3716 438.505C85.1473 438.361 84.7728 438.235 84.248 438.125C83.7233 438.014 83.2853 437.875 82.9341 437.706C82.1639 437.333 81.7788 436.794 81.7788 436.087C81.7788 435.494 82.0285 434.999 82.5278 434.602C83.0272 434.204 83.6619 434.005 84.4321 434.005C85.2531 434.005 85.9154 434.208 86.4189 434.614C86.9268 435.021 87.1807 435.547 87.1807 436.195H85.6382C85.6382 435.899 85.5282 435.653 85.3081 435.458C85.0881 435.26 84.7961 435.16 84.4321 435.16C84.0936 435.16 83.8164 435.238 83.6006 435.395C83.389 435.552 83.2832 435.761 83.2832 436.023C83.2832 436.26 83.3826 436.444 83.5815 436.576C83.7804 436.707 84.1825 436.84 84.7876 436.976C85.3927 437.107 85.8667 437.265 86.2095 437.452C86.5565 437.634 86.8125 437.854 86.9775 438.112C87.1468 438.37 87.2314 438.683 87.2314 439.051C87.2314 439.669 86.9754 440.171 86.4634 440.556C85.9513 440.937 85.2806 441.127 84.4512 441.127C83.8883 441.127 83.3869 441.025 82.9468 440.822C82.5067 440.619 82.1639 440.34 81.9185 439.984C81.673 439.629 81.5503 439.246 81.5503 438.835H83.0483C83.0695 439.199 83.207 439.481 83.4609 439.68C83.7148 439.874 84.0513 439.972 84.4702 439.972C84.8765 439.972 85.1854 439.896 85.397 439.743C85.6086 439.587 85.7144 439.383 85.7144 439.134ZM94.6138 438.874L95.7056 434.132H97.21L95.3374 441H94.0679L92.5952 436.284L91.1479 441H89.8784L87.9995 434.132H89.5039L90.6147 438.823L92.0239 434.132H93.1855L94.6138 438.874ZM97.9526 437.502C97.9526 436.83 98.0859 436.224 98.3525 435.687C98.6191 435.145 98.9937 434.731 99.4761 434.443C99.9585 434.151 100.513 434.005 101.139 434.005C102.066 434.005 102.817 434.303 103.393 434.9C103.972 435.497 104.285 436.288 104.332 437.274L104.338 437.636C104.338 438.313 104.207 438.918 103.945 439.451C103.687 439.984 103.314 440.397 102.828 440.689C102.345 440.981 101.787 441.127 101.152 441.127C100.183 441.127 99.4062 440.805 98.8223 440.162C98.2425 439.515 97.9526 438.653 97.9526 437.579V437.502ZM99.4951 437.636C99.4951 438.342 99.6411 438.897 99.9331 439.299C100.225 439.697 100.631 439.896 101.152 439.896C101.672 439.896 102.076 439.692 102.364 439.286C102.656 438.88 102.802 438.285 102.802 437.502C102.802 436.808 102.652 436.258 102.352 435.852C102.055 435.446 101.651 435.243 101.139 435.243C100.636 435.243 100.236 435.444 99.9395 435.846C99.6432 436.243 99.4951 436.84 99.4951 437.636ZM109.239 435.541C109.036 435.507 108.826 435.49 108.61 435.49C107.904 435.49 107.428 435.761 107.182 436.303V441H105.64V434.132H107.112L107.15 434.9C107.523 434.303 108.039 434.005 108.699 434.005C108.919 434.005 109.101 434.035 109.245 434.094L109.239 435.541ZM109.797 437.515C109.797 436.457 110.043 435.609 110.534 434.97C111.025 434.326 111.683 434.005 112.508 434.005C113.236 434.005 113.824 434.259 114.272 434.767V431.25H115.815V441H114.418L114.342 440.289C113.881 440.848 113.265 441.127 112.495 441.127C111.691 441.127 111.039 440.803 110.54 440.156C110.045 439.508 109.797 438.628 109.797 437.515ZM111.34 437.648C111.34 438.347 111.473 438.893 111.74 439.286C112.011 439.675 112.394 439.87 112.889 439.87C113.519 439.87 113.98 439.589 114.272 439.026V436.093C113.989 435.543 113.532 435.268 112.901 435.268C112.402 435.268 112.017 435.467 111.746 435.865C111.475 436.258 111.34 436.853 111.34 437.648Z" fill="#B0B0B0"/>
<path d="M66.8047 387.636C66.8047 388.698 66.5635 389.546 66.0811 390.181C65.5986 390.812 64.9512 391.127 64.1387 391.127C63.3854 391.127 62.7824 390.879 62.3296 390.384V393.641H60.7871V384.132H62.209L62.2725 384.83C62.7253 384.28 63.341 384.005 64.1196 384.005C64.9575 384.005 65.6134 384.318 66.0874 384.944C66.5656 385.566 66.8047 386.432 66.8047 387.541V387.636ZM65.2686 387.502C65.2686 386.817 65.131 386.273 64.856 385.871C64.5851 385.469 64.1958 385.268 63.688 385.268C63.0575 385.268 62.6047 385.528 62.3296 386.049V389.096C62.6089 389.629 63.0659 389.896 63.7007 389.896C64.1916 389.896 64.5745 389.699 64.8496 389.305C65.1289 388.907 65.2686 388.306 65.2686 387.502ZM69.6357 384.881C70.1393 384.297 70.7762 384.005 71.5464 384.005C73.0106 384.005 73.7533 384.841 73.7744 386.512V391H72.2319V386.569C72.2319 386.095 72.1283 385.761 71.9209 385.566C71.7178 385.368 71.4173 385.268 71.0195 385.268C70.4017 385.268 69.9404 385.543 69.6357 386.093V391H68.0933V381.25H69.6357V384.881ZM75.0503 387.502C75.0503 386.83 75.1836 386.224 75.4502 385.687C75.7168 385.145 76.0913 384.731 76.5737 384.443C77.0562 384.151 77.6105 384.005 78.2368 384.005C79.1636 384.005 79.9147 384.303 80.4902 384.9C81.07 385.497 81.3831 386.288 81.4297 387.274L81.436 387.636C81.436 388.313 81.3049 388.918 81.0425 389.451C80.7843 389.984 80.4119 390.397 79.9253 390.689C79.4429 390.981 78.8843 391.127 78.2495 391.127C77.2804 391.127 76.5039 390.805 75.9199 390.162C75.3402 389.515 75.0503 388.653 75.0503 387.579V387.502ZM76.5928 387.636C76.5928 388.342 76.7388 388.897 77.0308 389.299C77.3228 389.697 77.729 389.896 78.2495 389.896C78.77 389.896 79.1742 389.692 79.4619 389.286C79.7539 388.88 79.8999 388.285 79.8999 387.502C79.8999 386.808 79.7497 386.258 79.4492 385.852C79.153 385.446 78.7489 385.243 78.2368 385.243C77.7332 385.243 77.3333 385.444 77.0371 385.846C76.7409 386.243 76.5928 386.84 76.5928 387.636ZM84.1719 384.132L84.2163 384.925C84.7241 384.312 85.3906 384.005 86.2158 384.005C87.6462 384.005 88.374 384.824 88.3994 386.461V391H86.8569V386.55C86.8569 386.114 86.7617 385.793 86.5713 385.585C86.3851 385.374 86.0783 385.268 85.6509 385.268C85.0288 385.268 84.5654 385.549 84.2607 386.112V391H82.7183V384.132H84.1719ZM93.0015 391.127C92.0239 391.127 91.2305 390.82 90.6211 390.207C90.016 389.589 89.7134 388.768 89.7134 387.744V387.553C89.7134 386.868 89.8446 386.256 90.1069 385.719C90.3735 385.177 90.7459 384.756 91.2241 384.456C91.7023 384.155 92.2355 384.005 92.8237 384.005C93.759 384.005 94.4805 384.303 94.9883 384.9C95.5003 385.497 95.7563 386.341 95.7563 387.433V388.055H91.2686C91.3151 388.622 91.5034 389.07 91.8335 389.4C92.1678 389.73 92.5868 389.896 93.0903 389.896C93.797 389.896 94.3726 389.61 94.8169 389.039L95.6484 389.832C95.3734 390.243 95.0052 390.562 94.5439 390.791C94.0869 391.015 93.5728 391.127 93.0015 391.127ZM92.8174 385.243C92.3942 385.243 92.0514 385.391 91.7891 385.687C91.5309 385.983 91.3659 386.396 91.2939 386.925H94.2329V386.811C94.1991 386.294 94.0615 385.905 93.8203 385.643C93.5791 385.376 93.2448 385.243 92.8174 385.243ZM101.628 384.132L101.672 384.925C102.18 384.312 102.847 384.005 103.672 384.005C105.102 384.005 105.83 384.824 105.855 386.461V391H104.313V386.55C104.313 386.114 104.218 385.793 104.027 385.585C103.841 385.374 103.534 385.268 103.107 385.268C102.485 385.268 102.021 385.549 101.717 386.112V391H100.174V384.132H101.628ZM111.594 390.327C111.141 390.86 110.498 391.127 109.664 391.127C108.919 391.127 108.354 390.909 107.969 390.473C107.588 390.037 107.398 389.407 107.398 388.582V384.132H108.94V388.562C108.94 389.434 109.302 389.87 110.026 389.87C110.775 389.87 111.281 389.601 111.543 389.064V384.132H113.085V391H111.632L111.594 390.327ZM116.107 384.132L116.151 384.849C116.634 384.286 117.294 384.005 118.132 384.005C119.05 384.005 119.679 384.356 120.017 385.059C120.516 384.356 121.219 384.005 122.125 384.005C122.882 384.005 123.445 384.214 123.813 384.633C124.185 385.052 124.376 385.67 124.384 386.487V391H122.842V386.531C122.842 386.095 122.747 385.776 122.556 385.573C122.366 385.37 122.05 385.268 121.61 385.268C121.259 385.268 120.971 385.363 120.747 385.554C120.527 385.74 120.373 385.985 120.284 386.29L120.29 391H118.748V386.48C118.726 385.672 118.314 385.268 117.51 385.268C116.892 385.268 116.454 385.52 116.196 386.023V391H114.653V384.132H116.107ZM131.995 387.636C131.995 388.702 131.756 389.551 131.278 390.181C130.804 390.812 130.15 391.127 129.316 391.127C128.512 391.127 127.886 390.837 127.438 390.257L127.361 391H125.965V381.25H127.507V384.792C127.952 384.267 128.55 384.005 129.304 384.005C130.142 384.005 130.8 384.316 131.278 384.938C131.756 385.56 131.995 386.43 131.995 387.547V387.636ZM130.453 387.502C130.453 386.758 130.321 386.199 130.059 385.827C129.797 385.454 129.416 385.268 128.917 385.268C128.248 385.268 127.778 385.56 127.507 386.144V388.975C127.782 389.572 128.256 389.87 128.929 389.87C129.412 389.87 129.784 389.69 130.046 389.331C130.309 388.971 130.444 388.427 130.453 387.699V387.502ZM136.318 391.127C135.34 391.127 134.547 390.82 133.938 390.207C133.332 389.589 133.03 388.768 133.03 387.744V387.553C133.03 386.868 133.161 386.256 133.423 385.719C133.69 385.177 134.062 384.756 134.541 384.456C135.019 384.155 135.552 384.005 136.14 384.005C137.075 384.005 137.797 384.303 138.305 384.9C138.817 385.497 139.073 386.341 139.073 387.433V388.055H134.585C134.632 388.622 134.82 389.07 135.15 389.4C135.484 389.73 135.903 389.896 136.407 389.896C137.113 389.896 137.689 389.61 138.133 389.039L138.965 389.832C138.69 390.243 138.322 390.562 137.86 390.791C137.403 391.015 136.889 391.127 136.318 391.127ZM136.134 385.243C135.711 385.243 135.368 385.391 135.105 385.687C134.847 385.983 134.682 386.396 134.61 386.925H137.549V386.811C137.515 386.294 137.378 385.905 137.137 385.643C136.896 385.376 136.561 385.243 136.134 385.243ZM143.872 385.541C143.668 385.507 143.459 385.49 143.243 385.49C142.536 385.49 142.06 385.761 141.815 386.303V391H140.272V384.132H141.745L141.783 384.9C142.156 384.303 142.672 384.005 143.332 384.005C143.552 384.005 143.734 384.035 143.878 384.094L143.872 385.541ZM143.96 393.082L143.129 392.587C143.374 392.202 143.542 391.865 143.63 391.578C143.723 391.294 143.772 391.004 143.776 390.708V389.508H145.167L145.16 390.619C145.156 391.068 145.042 391.516 144.817 391.965C144.597 392.418 144.312 392.79 143.96 393.082ZM150.759 390.327C150.306 390.86 149.663 391.127 148.829 391.127C148.084 391.127 147.519 390.909 147.134 390.473C146.753 390.037 146.563 389.407 146.563 388.582V384.132H148.105V388.562C148.105 389.434 148.467 389.87 149.191 389.87C149.94 389.87 150.446 389.601 150.708 389.064V384.132H152.25V391H150.797L150.759 390.327ZM157.671 389.134C157.671 388.859 157.557 388.649 157.329 388.505C157.104 388.361 156.73 388.235 156.205 388.125C155.68 388.014 155.242 387.875 154.891 387.706C154.121 387.333 153.736 386.794 153.736 386.087C153.736 385.494 153.986 384.999 154.485 384.602C154.984 384.204 155.619 384.005 156.389 384.005C157.21 384.005 157.872 384.208 158.376 384.614C158.884 385.021 159.138 385.547 159.138 386.195H157.595C157.595 385.899 157.485 385.653 157.265 385.458C157.045 385.26 156.753 385.16 156.389 385.16C156.051 385.16 155.773 385.238 155.558 385.395C155.346 385.552 155.24 385.761 155.24 386.023C155.24 386.26 155.34 386.444 155.539 386.576C155.737 386.707 156.139 386.84 156.745 386.976C157.35 387.107 157.824 387.265 158.167 387.452C158.514 387.634 158.77 387.854 158.935 388.112C159.104 388.37 159.188 388.683 159.188 389.051C159.188 389.669 158.932 390.171 158.42 390.556C157.908 390.937 157.238 391.127 156.408 391.127C155.845 391.127 155.344 391.025 154.904 390.822C154.464 390.619 154.121 390.34 153.875 389.984C153.63 389.629 153.507 389.246 153.507 388.835H155.005C155.027 389.199 155.164 389.481 155.418 389.68C155.672 389.874 156.008 389.972 156.427 389.972C156.833 389.972 157.142 389.896 157.354 389.743C157.566 389.587 157.671 389.383 157.671 389.134ZM163.562 391.127C162.584 391.127 161.791 390.82 161.182 390.207C160.576 389.589 160.274 388.768 160.274 387.744V387.553C160.274 386.868 160.405 386.256 160.667 385.719C160.934 385.177 161.306 384.756 161.785 384.456C162.263 384.155 162.796 384.005 163.384 384.005C164.319 384.005 165.041 384.303 165.549 384.9C166.061 385.497 166.317 386.341 166.317 387.433V388.055H161.829C161.876 388.622 162.064 389.07 162.394 389.4C162.728 389.73 163.147 389.896 163.651 389.896C164.358 389.896 164.933 389.61 165.377 389.039L166.209 389.832C165.934 390.243 165.566 390.562 165.104 390.791C164.647 391.015 164.133 391.127 163.562 391.127ZM163.378 385.243C162.955 385.243 162.612 385.391 162.35 385.687C162.091 385.983 161.926 386.396 161.854 386.925H164.793V386.811C164.76 386.294 164.622 385.905 164.381 385.643C164.14 385.376 163.805 385.243 163.378 385.243ZM171.116 385.541C170.913 385.507 170.703 385.49 170.487 385.49C169.781 385.49 169.305 385.761 169.059 386.303V391H167.517V384.132H168.989L169.027 384.9C169.4 384.303 169.916 384.005 170.576 384.005C170.796 384.005 170.978 384.035 171.122 384.094L171.116 385.541ZM173.521 384.132L173.566 384.925C174.074 384.312 174.74 384.005 175.565 384.005C176.996 384.005 177.724 384.824 177.749 386.461V391H176.207V386.55C176.207 386.114 176.111 385.793 175.921 385.585C175.735 385.374 175.428 385.268 175 385.268C174.378 385.268 173.915 385.549 173.61 386.112V391H172.068V384.132H173.521ZM183.43 391C183.362 390.869 183.303 390.655 183.252 390.359C182.762 390.871 182.161 391.127 181.45 391.127C180.76 391.127 180.197 390.93 179.761 390.537C179.325 390.143 179.107 389.656 179.107 389.077C179.107 388.345 179.378 387.784 179.92 387.395C180.466 387.001 181.244 386.804 182.256 386.804H183.202V386.354C183.202 385.998 183.102 385.715 182.903 385.503C182.704 385.287 182.402 385.179 181.996 385.179C181.644 385.179 181.357 385.268 181.132 385.446C180.908 385.619 180.796 385.841 180.796 386.112H179.253C179.253 385.736 179.378 385.384 179.628 385.059C179.878 384.729 180.216 384.47 180.644 384.284C181.075 384.098 181.556 384.005 182.084 384.005C182.889 384.005 183.53 384.208 184.008 384.614C184.486 385.016 184.731 385.583 184.744 386.315V389.413C184.744 390.031 184.831 390.524 185.004 390.892V391H183.43ZM181.735 389.889C182.04 389.889 182.326 389.815 182.592 389.667C182.863 389.519 183.066 389.32 183.202 389.07V387.775H182.37C181.799 387.775 181.369 387.875 181.082 388.074C180.794 388.273 180.65 388.554 180.65 388.918C180.65 389.214 180.747 389.451 180.942 389.629C181.141 389.802 181.405 389.889 181.735 389.889ZM187.81 384.132L187.854 384.849C188.337 384.286 188.997 384.005 189.835 384.005C190.753 384.005 191.382 384.356 191.72 385.059C192.22 384.356 192.922 384.005 193.828 384.005C194.585 384.005 195.148 384.214 195.516 384.633C195.889 385.052 196.079 385.67 196.087 386.487V391H194.545V386.531C194.545 386.095 194.45 385.776 194.259 385.573C194.069 385.37 193.754 385.268 193.313 385.268C192.962 385.268 192.674 385.363 192.45 385.554C192.23 385.74 192.076 385.985 191.987 386.29L191.993 391H190.451V386.48C190.43 385.672 190.017 385.268 189.213 385.268C188.595 385.268 188.157 385.52 187.899 386.023V391H186.356V384.132H187.81ZM200.696 391.127C199.718 391.127 198.925 390.82 198.315 390.207C197.71 389.589 197.408 388.768 197.408 387.744V387.553C197.408 386.868 197.539 386.256 197.801 385.719C198.068 385.177 198.44 384.756 198.918 384.456C199.397 384.155 199.93 384.005 200.518 384.005C201.453 384.005 202.175 384.303 202.683 384.9C203.195 385.497 203.451 386.341 203.451 387.433V388.055H198.963C199.009 388.622 199.198 389.07 199.528 389.4C199.862 389.73 200.281 389.896 200.785 389.896C201.491 389.896 202.067 389.61 202.511 389.039L203.343 389.832C203.068 390.243 202.7 390.562 202.238 390.791C201.781 391.015 201.267 391.127 200.696 391.127ZM200.512 385.243C200.089 385.243 199.746 385.391 199.483 385.687C199.225 385.983 199.06 386.396 198.988 386.925H201.927V386.811C201.893 386.294 201.756 385.905 201.515 385.643C201.273 385.376 200.939 385.243 200.512 385.243ZM204.873 393.082L204.041 392.587C204.286 392.202 204.454 391.865 204.542 391.578C204.636 391.294 204.684 391.004 204.688 390.708V389.508H206.079L206.072 390.619C206.068 391.068 205.954 391.516 205.729 391.965C205.509 392.418 205.224 392.79 204.873 393.082ZM210.458 387.502C210.458 386.83 210.592 386.224 210.858 385.687C211.125 385.145 211.5 384.731 211.982 384.443C212.464 384.151 213.019 384.005 213.645 384.005C214.572 384.005 215.323 384.303 215.898 384.9C216.478 385.497 216.791 386.288 216.838 387.274L216.844 387.636C216.844 388.313 216.713 388.918 216.451 389.451C216.193 389.984 215.82 390.397 215.333 390.689C214.851 390.981 214.292 391.127 213.658 391.127C212.689 391.127 211.912 390.805 211.328 390.162C210.748 389.515 210.458 388.653 210.458 387.579V387.502ZM212.001 387.636C212.001 388.342 212.147 388.897 212.439 389.299C212.731 389.697 213.137 389.896 213.658 389.896C214.178 389.896 214.582 389.692 214.87 389.286C215.162 388.88 215.308 388.285 215.308 387.502C215.308 386.808 215.158 386.258 214.857 385.852C214.561 385.446 214.157 385.243 213.645 385.243C213.141 385.243 212.742 385.444 212.445 385.846C212.149 386.243 212.001 386.84 212.001 387.636ZM221.745 385.541C221.542 385.507 221.332 385.49 221.116 385.49C220.41 385.49 219.933 385.761 219.688 386.303V391H218.146V384.132H219.618L219.656 384.9C220.029 384.303 220.545 384.005 221.205 384.005C221.425 384.005 221.607 384.035 221.751 384.094L221.745 385.541ZM228.981 391.127C228.003 391.127 227.21 390.82 226.601 390.207C225.995 389.589 225.693 388.768 225.693 387.744V387.553C225.693 386.868 225.824 386.256 226.086 385.719C226.353 385.177 226.725 384.756 227.204 384.456C227.682 384.155 228.215 384.005 228.803 384.005C229.738 384.005 230.46 384.303 230.968 384.9C231.48 385.497 231.736 386.341 231.736 387.433V388.055H227.248C227.295 388.622 227.483 389.07 227.813 389.4C228.147 389.73 228.566 389.896 229.07 389.896C229.777 389.896 230.352 389.61 230.796 389.039L231.628 389.832C231.353 390.243 230.985 390.562 230.523 390.791C230.066 391.015 229.552 391.127 228.981 391.127ZM228.797 385.243C228.374 385.243 228.031 385.391 227.769 385.687C227.51 385.983 227.345 386.396 227.273 386.925H230.212V386.811C230.179 386.294 230.041 385.905 229.8 385.643C229.559 385.376 229.224 385.243 228.797 385.243ZM234.389 384.132L234.434 384.849C234.916 384.286 235.576 384.005 236.414 384.005C237.332 384.005 237.961 384.356 238.299 385.059C238.799 384.356 239.501 384.005 240.407 384.005C241.164 384.005 241.727 384.214 242.095 384.633C242.468 385.052 242.658 385.67 242.667 386.487V391H241.124V386.531C241.124 386.095 241.029 385.776 240.838 385.573C240.648 385.37 240.333 385.268 239.893 385.268C239.541 385.268 239.254 385.363 239.029 385.554C238.809 385.74 238.655 385.985 238.566 386.29L238.572 391H237.03V386.48C237.009 385.672 236.596 385.268 235.792 385.268C235.174 385.268 234.736 385.52 234.478 386.023V391H232.936V384.132H234.389ZM248.354 391C248.286 390.869 248.227 390.655 248.176 390.359C247.685 390.871 247.084 391.127 246.374 391.127C245.684 391.127 245.121 390.93 244.685 390.537C244.249 390.143 244.031 389.656 244.031 389.077C244.031 388.345 244.302 387.784 244.844 387.395C245.39 387.001 246.168 386.804 247.18 386.804H248.125V386.354C248.125 385.998 248.026 385.715 247.827 385.503C247.628 385.287 247.326 385.179 246.919 385.179C246.568 385.179 246.28 385.268 246.056 385.446C245.832 385.619 245.72 385.841 245.72 386.112H244.177C244.177 385.736 244.302 385.384 244.552 385.059C244.801 384.729 245.14 384.47 245.567 384.284C245.999 384.098 246.479 384.005 247.008 384.005C247.812 384.005 248.453 384.208 248.932 384.614C249.41 385.016 249.655 385.583 249.668 386.315V389.413C249.668 390.031 249.755 390.524 249.928 390.892V391H248.354ZM246.659 389.889C246.964 389.889 247.25 389.815 247.516 389.667C247.787 389.519 247.99 389.32 248.125 389.07V387.775H247.294C246.723 387.775 246.293 387.875 246.005 388.074C245.718 388.273 245.574 388.554 245.574 388.918C245.574 389.214 245.671 389.451 245.866 389.629C246.065 389.802 246.329 389.889 246.659 389.889ZM252.924 391H251.382V384.132H252.924V391ZM251.287 382.348C251.287 382.111 251.361 381.914 251.509 381.758C251.661 381.601 251.877 381.523 252.156 381.523C252.436 381.523 252.651 381.601 252.804 381.758C252.956 381.914 253.032 382.111 253.032 382.348C253.032 382.581 252.956 382.776 252.804 382.932C252.651 383.084 252.436 383.161 252.156 383.161C251.877 383.161 251.661 383.084 251.509 382.932C251.361 382.776 251.287 382.581 251.287 382.348ZM256.25 391H254.708V381.25H256.25V391Z" fill="#B0B0B0"/>
<path d="M264.265 476.083H260.545V480H258.939V470.758H264.811V472.053H260.545V474.801H264.265V476.083ZM265.964 476.502C265.964 475.83 266.098 475.224 266.364 474.687C266.631 474.145 267.005 473.731 267.488 473.443C267.97 473.151 268.524 473.005 269.151 473.005C270.078 473.005 270.829 473.303 271.404 473.9C271.984 474.497 272.297 475.288 272.344 476.274L272.35 476.636C272.35 477.313 272.219 477.918 271.956 478.451C271.698 478.984 271.326 479.397 270.839 479.689C270.357 479.981 269.798 480.127 269.163 480.127C268.194 480.127 267.418 479.805 266.834 479.162C266.254 478.515 265.964 477.653 265.964 476.579V476.502ZM267.507 476.636C267.507 477.342 267.653 477.897 267.945 478.299C268.237 478.697 268.643 478.896 269.163 478.896C269.684 478.896 270.088 478.692 270.376 478.286C270.668 477.88 270.814 477.285 270.814 476.502C270.814 475.808 270.664 475.258 270.363 474.852C270.067 474.446 269.663 474.243 269.151 474.243C268.647 474.243 268.247 474.444 267.951 474.846C267.655 475.243 267.507 475.84 267.507 476.636ZM277.705 474.541C277.502 474.507 277.293 474.49 277.077 474.49C276.37 474.49 275.894 474.761 275.649 475.303V480H274.106V473.132H275.579L275.617 473.9C275.989 473.303 276.506 473.005 277.166 473.005C277.386 473.005 277.568 473.035 277.712 473.094L277.705 474.541ZM278.738 476.515C278.738 475.449 278.988 474.598 279.487 473.963C279.991 473.324 280.657 473.005 281.487 473.005C282.269 473.005 282.885 473.278 283.334 473.824L283.404 473.132H284.794V479.791C284.794 480.692 284.512 481.403 283.949 481.923C283.391 482.444 282.636 482.704 281.683 482.704C281.18 482.704 280.687 482.598 280.204 482.387C279.726 482.179 279.362 481.906 279.113 481.568L279.843 480.641C280.316 481.204 280.9 481.485 281.594 481.485C282.107 481.485 282.511 481.346 282.807 481.066C283.103 480.791 283.251 480.385 283.251 479.848V479.384C282.807 479.879 282.214 480.127 281.474 480.127C280.67 480.127 280.012 479.807 279.5 479.168C278.992 478.529 278.738 477.645 278.738 476.515ZM280.274 476.648C280.274 477.338 280.414 477.882 280.693 478.28C280.977 478.673 281.368 478.87 281.867 478.87C282.49 478.87 282.951 478.604 283.251 478.07V475.049C282.959 474.528 282.502 474.268 281.88 474.268C281.372 474.268 280.977 474.469 280.693 474.871C280.414 475.273 280.274 475.866 280.274 476.648ZM286.55 476.502C286.55 475.83 286.683 475.224 286.95 474.687C287.216 474.145 287.591 473.731 288.073 473.443C288.556 473.151 289.11 473.005 289.737 473.005C290.663 473.005 291.414 473.303 291.99 473.9C292.57 474.497 292.883 475.288 292.929 476.274L292.936 476.636C292.936 477.313 292.805 477.918 292.542 478.451C292.284 478.984 291.912 479.397 291.425 479.689C290.943 479.981 290.384 480.127 289.749 480.127C288.78 480.127 288.004 479.805 287.42 479.162C286.84 478.515 286.55 477.653 286.55 476.579V476.502ZM288.092 476.636C288.092 477.342 288.238 477.897 288.53 478.299C288.822 478.697 289.229 478.896 289.749 478.896C290.27 478.896 290.674 478.692 290.962 478.286C291.254 477.88 291.4 477.285 291.4 476.502C291.4 475.808 291.249 475.258 290.949 474.852C290.653 474.446 290.249 474.243 289.737 474.243C289.233 474.243 288.833 474.444 288.537 474.846C288.241 475.243 288.092 475.84 288.092 476.636ZM296.628 471.462V473.132H297.84V474.274H296.628V478.108C296.628 478.371 296.679 478.561 296.78 478.68C296.886 478.794 297.072 478.851 297.339 478.851C297.517 478.851 297.697 478.83 297.879 478.788V479.981C297.527 480.078 297.189 480.127 296.863 480.127C295.678 480.127 295.086 479.473 295.086 478.166V474.274H293.956V473.132H295.086V471.462H296.628ZM309.186 476.636C309.186 477.698 308.945 478.546 308.462 479.181C307.98 479.812 307.332 480.127 306.52 480.127C305.767 480.127 305.164 479.879 304.711 479.384V482.641H303.168V473.132H304.59L304.654 473.83C305.107 473.28 305.722 473.005 306.501 473.005C307.339 473.005 307.995 473.318 308.469 473.944C308.947 474.566 309.186 475.432 309.186 476.541V476.636ZM307.65 476.502C307.65 475.817 307.512 475.273 307.237 474.871C306.966 474.469 306.577 474.268 306.069 474.268C305.439 474.268 304.986 474.528 304.711 475.049V478.096C304.99 478.629 305.447 478.896 306.082 478.896C306.573 478.896 306.956 478.699 307.231 478.305C307.51 477.907 307.65 477.306 307.65 476.502ZM315.056 480C314.988 479.869 314.929 479.655 314.878 479.359C314.387 479.871 313.786 480.127 313.075 480.127C312.385 480.127 311.822 479.93 311.387 479.537C310.951 479.143 310.733 478.656 310.733 478.077C310.733 477.345 311.004 476.784 311.545 476.395C312.091 476.001 312.87 475.804 313.881 475.804H314.827V475.354C314.827 474.998 314.728 474.715 314.529 474.503C314.33 474.287 314.027 474.179 313.621 474.179C313.27 474.179 312.982 474.268 312.758 474.446C312.533 474.619 312.421 474.841 312.421 475.112H310.879C310.879 474.736 311.004 474.384 311.253 474.059C311.503 473.729 311.841 473.47 312.269 473.284C312.701 473.098 313.181 473.005 313.71 473.005C314.514 473.005 315.155 473.208 315.633 473.614C316.111 474.016 316.357 474.583 316.369 475.315V478.413C316.369 479.031 316.456 479.524 316.63 479.892V480H315.056ZM313.361 478.889C313.665 478.889 313.951 478.815 314.218 478.667C314.488 478.519 314.692 478.32 314.827 478.07V476.775H313.995C313.424 476.775 312.995 476.875 312.707 477.074C312.419 477.273 312.275 477.554 312.275 477.918C312.275 478.214 312.373 478.451 312.567 478.629C312.766 478.802 313.031 478.889 313.361 478.889ZM322.29 478.134C322.29 477.859 322.176 477.649 321.947 477.505C321.723 477.361 321.348 477.235 320.824 477.125C320.299 477.014 319.861 476.875 319.51 476.706C318.739 476.333 318.354 475.794 318.354 475.087C318.354 474.494 318.604 473.999 319.103 473.602C319.603 473.204 320.237 473.005 321.008 473.005C321.829 473.005 322.491 473.208 322.994 473.614C323.502 474.021 323.756 474.547 323.756 475.195H322.214C322.214 474.899 322.104 474.653 321.884 474.458C321.664 474.26 321.372 474.16 321.008 474.16C320.669 474.16 320.392 474.238 320.176 474.395C319.964 474.552 319.859 474.761 319.859 475.023C319.859 475.26 319.958 475.444 320.157 475.576C320.356 475.707 320.758 475.84 321.363 475.976C321.968 476.107 322.442 476.265 322.785 476.452C323.132 476.634 323.388 476.854 323.553 477.112C323.722 477.37 323.807 477.683 323.807 478.051C323.807 478.669 323.551 479.171 323.039 479.556C322.527 479.937 321.856 480.127 321.027 480.127C320.464 480.127 319.962 480.025 319.522 479.822C319.082 479.619 318.739 479.34 318.494 478.984C318.248 478.629 318.126 478.246 318.126 477.835H319.624C319.645 478.199 319.783 478.481 320.036 478.68C320.29 478.874 320.627 478.972 321.046 478.972C321.452 478.972 321.761 478.896 321.972 478.743C322.184 478.587 322.29 478.383 322.29 478.134ZM329.461 478.134C329.461 477.859 329.346 477.649 329.118 477.505C328.894 477.361 328.519 477.235 327.994 477.125C327.47 477.014 327.032 476.875 326.68 476.706C325.91 476.333 325.525 475.794 325.525 475.087C325.525 474.494 325.775 473.999 326.274 473.602C326.773 473.204 327.408 473.005 328.178 473.005C328.999 473.005 329.662 473.208 330.165 473.614C330.673 474.021 330.927 474.547 330.927 475.195H329.384C329.384 474.899 329.274 474.653 329.054 474.458C328.834 474.26 328.542 474.16 328.178 474.16C327.84 474.16 327.563 474.238 327.347 474.395C327.135 474.552 327.029 474.761 327.029 475.023C327.029 475.26 327.129 475.444 327.328 475.576C327.527 475.707 327.929 475.84 328.534 475.976C329.139 476.107 329.613 476.265 329.956 476.452C330.303 476.634 330.559 476.854 330.724 477.112C330.893 477.37 330.978 477.683 330.978 478.051C330.978 478.669 330.722 479.171 330.21 479.556C329.698 479.937 329.027 480.127 328.197 480.127C327.635 480.127 327.133 480.025 326.693 479.822C326.253 479.619 325.91 479.34 325.665 478.984C325.419 478.629 325.297 478.246 325.297 477.835H326.795C326.816 478.199 326.953 478.481 327.207 478.68C327.461 478.874 327.798 478.972 328.217 478.972C328.623 478.972 328.932 478.896 329.143 478.743C329.355 478.587 329.461 478.383 329.461 478.134ZM338.815 477.874L339.907 473.132H341.411L339.539 480H338.269L336.797 475.284L335.349 480H334.08L332.201 473.132H333.705L334.816 477.823L336.225 473.132H337.387L338.815 477.874ZM342.609 476.502C342.609 475.83 342.742 475.224 343.009 474.687C343.275 474.145 343.65 473.731 344.132 473.443C344.615 473.151 345.169 473.005 345.795 473.005C346.722 473.005 347.473 473.303 348.049 473.9C348.629 474.497 348.942 475.288 348.988 476.274L348.995 476.636C348.995 477.313 348.863 477.918 348.601 478.451C348.343 478.984 347.971 479.397 347.484 479.689C347.002 479.981 346.443 480.127 345.808 480.127C344.839 480.127 344.063 479.805 343.479 479.162C342.899 478.515 342.609 477.653 342.609 476.579V476.502ZM344.151 476.636C344.151 477.342 344.297 477.897 344.589 478.299C344.881 478.697 345.288 478.896 345.808 478.896C346.329 478.896 346.733 478.692 347.021 478.286C347.313 477.88 347.459 477.285 347.459 476.502C347.459 475.808 347.308 475.258 347.008 474.852C346.712 474.446 346.307 474.243 345.795 474.243C345.292 474.243 344.892 474.444 344.596 474.846C344.3 475.243 344.151 475.84 344.151 476.636ZM354.35 474.541C354.147 474.507 353.937 474.49 353.722 474.49C353.015 474.49 352.539 474.761 352.293 475.303V480H350.751V473.132H352.224L352.262 473.9C352.634 473.303 353.15 473.005 353.811 473.005C354.031 473.005 354.213 473.035 354.356 473.094L354.35 474.541ZM355.364 476.515C355.364 475.457 355.609 474.609 356.1 473.97C356.591 473.326 357.249 473.005 358.074 473.005C358.802 473.005 359.39 473.259 359.839 473.767V470.25H361.381V480H359.985L359.909 479.289C359.447 479.848 358.832 480.127 358.061 480.127C357.257 480.127 356.606 479.803 356.106 479.156C355.611 478.508 355.364 477.628 355.364 476.515ZM356.906 476.648C356.906 477.347 357.039 477.893 357.306 478.286C357.577 478.675 357.96 478.87 358.455 478.87C359.085 478.87 359.547 478.589 359.839 478.026V475.093C359.555 474.543 359.098 474.268 358.468 474.268C357.968 474.268 357.583 474.467 357.312 474.865C357.042 475.258 356.906 475.853 356.906 476.648ZM364.877 477.283C364.877 476.72 364.947 476.272 365.086 475.938C365.226 475.603 365.501 475.237 365.911 474.839C366.326 474.437 366.589 474.152 366.699 473.982C366.868 473.724 366.952 473.445 366.952 473.145C366.952 472.747 366.853 472.444 366.654 472.237C366.459 472.025 366.172 471.919 365.791 471.919C365.427 471.919 365.133 472.023 364.908 472.23C364.688 472.434 364.578 472.711 364.578 473.062H363.036C363.044 472.313 363.298 471.721 363.798 471.285C364.301 470.849 364.966 470.631 365.791 470.631C366.641 470.631 367.304 470.847 367.778 471.278C368.256 471.71 368.495 472.313 368.495 473.087C368.495 473.777 368.173 474.456 367.53 475.125L366.749 475.893C366.47 476.21 366.326 476.674 366.318 477.283H364.877ZM364.769 479.257C364.769 479.008 364.847 478.807 365.004 478.654C365.16 478.498 365.372 478.419 365.638 478.419C365.909 478.419 366.123 478.5 366.28 478.661C366.436 478.817 366.514 479.016 366.514 479.257C366.514 479.49 366.438 479.685 366.286 479.841C366.134 479.998 365.918 480.076 365.638 480.076C365.359 480.076 365.143 479.998 364.991 479.841C364.843 479.685 364.769 479.49 364.769 479.257Z" fill="#1877F2"/>
<path d="M99.084 595V584.336H102.233C103.176 584.336 104.011 584.546 104.738 584.966C105.471 585.386 106.037 585.981 106.438 586.753C106.838 587.524 107.038 588.408 107.038 589.404V589.939C107.038 590.95 106.835 591.838 106.43 592.605C106.03 593.372 105.456 593.962 104.709 594.377C103.967 594.792 103.115 595 102.153 595H99.084ZM100.937 585.83V593.521H102.146C103.117 593.521 103.862 593.218 104.379 592.612C104.902 592.002 105.168 591.128 105.178 589.99V589.397C105.178 588.24 104.926 587.356 104.423 586.746C103.92 586.135 103.19 585.83 102.233 585.83H100.937ZM108.678 590.964C108.678 590.188 108.832 589.49 109.14 588.87C109.447 588.245 109.88 587.766 110.436 587.434C110.993 587.097 111.633 586.929 112.355 586.929C113.425 586.929 114.291 587.273 114.955 587.961C115.624 588.65 115.986 589.563 116.039 590.701L116.047 591.118C116.047 591.899 115.895 592.598 115.592 593.213C115.295 593.828 114.865 594.304 114.303 594.641C113.747 594.978 113.102 595.146 112.37 595.146C111.252 595.146 110.356 594.775 109.682 594.033C109.013 593.286 108.678 592.292 108.678 591.052V590.964ZM110.458 591.118C110.458 591.934 110.627 592.573 110.964 593.037C111.3 593.496 111.769 593.726 112.37 593.726C112.97 593.726 113.437 593.491 113.769 593.022C114.106 592.554 114.274 591.868 114.274 590.964C114.274 590.164 114.101 589.529 113.754 589.06C113.412 588.591 112.946 588.357 112.355 588.357C111.774 588.357 111.313 588.589 110.971 589.053C110.629 589.512 110.458 590.2 110.458 591.118ZM119.503 587.075L119.555 587.991C120.141 587.283 120.91 586.929 121.862 586.929C123.512 586.929 124.352 587.874 124.381 589.763V595H122.601V589.866C122.601 589.363 122.492 588.992 122.272 588.752C122.057 588.508 121.703 588.386 121.21 588.386C120.492 588.386 119.957 588.711 119.606 589.36V595H117.826V587.075H119.503ZM125.992 587.5L125.084 586.936C125.524 586.296 125.751 585.62 125.765 584.907V583.75H127.325V584.761C127.325 585.264 127.196 585.771 126.937 586.284C126.683 586.792 126.368 587.197 125.992 587.5ZM131.405 585.149V587.075H132.804V588.394H131.405V592.817C131.405 593.12 131.463 593.34 131.58 593.477C131.702 593.608 131.917 593.674 132.225 593.674C132.43 593.674 132.638 593.65 132.847 593.601V594.978C132.442 595.09 132.052 595.146 131.676 595.146C130.308 595.146 129.625 594.392 129.625 592.883V588.394H128.321V587.075H129.625V585.149H131.405ZM140.259 587.939C140.84 587.266 141.575 586.929 142.464 586.929C144.153 586.929 145.01 587.893 145.034 589.822V595H143.255V589.888C143.255 589.341 143.135 588.955 142.896 588.73C142.661 588.501 142.315 588.386 141.856 588.386C141.143 588.386 140.611 588.704 140.259 589.338V595H138.479V583.75H140.259V587.939ZM151.875 595C151.797 594.849 151.728 594.602 151.67 594.26C151.103 594.851 150.41 595.146 149.59 595.146C148.794 595.146 148.144 594.919 147.642 594.465C147.139 594.011 146.887 593.45 146.887 592.781C146.887 591.936 147.2 591.289 147.825 590.84C148.454 590.386 149.353 590.159 150.52 590.159H151.611V589.639C151.611 589.229 151.496 588.901 151.267 588.657C151.037 588.408 150.688 588.284 150.22 588.284C149.814 588.284 149.482 588.386 149.224 588.591C148.965 588.792 148.835 589.048 148.835 589.36H147.056C147.056 588.926 147.2 588.521 147.488 588.145C147.776 587.764 148.166 587.466 148.66 587.251C149.158 587.036 149.712 586.929 150.322 586.929C151.25 586.929 151.99 587.163 152.541 587.632C153.093 588.096 153.376 588.75 153.391 589.595V593.169C153.391 593.882 153.491 594.451 153.691 594.875V595H151.875ZM149.919 593.718C150.271 593.718 150.6 593.633 150.908 593.462C151.221 593.291 151.455 593.062 151.611 592.773V591.279H150.652C149.993 591.279 149.497 591.394 149.165 591.624C148.833 591.853 148.667 592.178 148.667 592.598C148.667 592.939 148.779 593.213 149.004 593.418C149.233 593.618 149.538 593.718 149.919 593.718ZM158.232 592.744L159.909 587.075H161.748L159.001 595H157.456L154.687 587.075H156.533L158.232 592.744ZM166.552 595.146C165.424 595.146 164.509 594.792 163.805 594.084C163.107 593.372 162.758 592.424 162.758 591.243V591.023C162.758 590.232 162.909 589.526 163.212 588.906C163.52 588.281 163.95 587.795 164.501 587.449C165.053 587.102 165.668 586.929 166.347 586.929C167.426 586.929 168.259 587.273 168.845 587.961C169.435 588.65 169.731 589.624 169.731 590.884V591.602H164.553C164.606 592.256 164.824 592.773 165.204 593.154C165.59 593.535 166.074 593.726 166.655 593.726C167.47 593.726 168.134 593.396 168.647 592.737L169.606 593.652C169.289 594.126 168.864 594.495 168.332 594.758C167.804 595.017 167.211 595.146 166.552 595.146ZM166.34 588.357C165.851 588.357 165.456 588.528 165.153 588.87C164.855 589.211 164.665 589.688 164.582 590.298H167.973V590.166C167.934 589.57 167.775 589.121 167.497 588.818C167.219 588.511 166.833 588.357 166.34 588.357ZM180.189 595C180.111 594.849 180.043 594.602 179.984 594.26C179.418 594.851 178.724 595.146 177.904 595.146C177.108 595.146 176.459 594.919 175.956 594.465C175.453 594.011 175.201 593.45 175.201 592.781C175.201 591.936 175.514 591.289 176.139 590.84C176.769 590.386 177.667 590.159 178.834 590.159H179.925V589.639C179.925 589.229 179.811 588.901 179.581 588.657C179.352 588.408 179.003 588.284 178.534 588.284C178.129 588.284 177.797 588.386 177.538 588.591C177.279 588.792 177.15 589.048 177.15 589.36H175.37C175.37 588.926 175.514 588.521 175.802 588.145C176.09 587.764 176.481 587.466 176.974 587.251C177.472 587.036 178.026 586.929 178.636 586.929C179.564 586.929 180.304 587.163 180.856 587.632C181.407 588.096 181.691 588.75 181.705 589.595V593.169C181.705 593.882 181.805 594.451 182.006 594.875V595H180.189ZM178.234 593.718C178.585 593.718 178.915 593.633 179.222 593.462C179.535 593.291 179.769 593.062 179.925 592.773V591.279H178.966C178.307 591.279 177.811 591.394 177.479 591.624C177.147 591.853 176.981 592.178 176.981 592.598C176.981 592.939 177.093 593.213 177.318 593.418C177.548 593.618 177.853 593.718 178.234 593.718ZM185.521 587.075L185.572 587.991C186.158 587.283 186.927 586.929 187.879 586.929C189.53 586.929 190.37 587.874 190.399 589.763V595H188.619V589.866C188.619 589.363 188.509 588.992 188.289 588.752C188.075 588.508 187.721 588.386 187.227 588.386C186.51 588.386 185.975 588.711 185.623 589.36V595H183.844V587.075H185.521ZM201.289 595C201.211 594.849 201.143 594.602 201.084 594.26C200.518 594.851 199.825 595.146 199.004 595.146C198.208 595.146 197.559 594.919 197.056 594.465C196.553 594.011 196.302 593.45 196.302 592.781C196.302 591.936 196.614 591.289 197.239 590.84C197.869 590.386 198.767 590.159 199.934 590.159H201.026V589.639C201.026 589.229 200.911 588.901 200.681 588.657C200.452 588.408 200.103 588.284 199.634 588.284C199.229 588.284 198.897 588.386 198.638 588.591C198.379 588.792 198.25 589.048 198.25 589.36H196.47C196.47 588.926 196.614 588.521 196.902 588.145C197.19 587.764 197.581 587.466 198.074 587.251C198.572 587.036 199.126 586.929 199.737 586.929C200.664 586.929 201.404 587.163 201.956 587.632C202.508 588.096 202.791 588.75 202.805 589.595V593.169C202.805 593.882 202.906 594.451 203.106 594.875V595H201.289ZM199.334 593.718C199.685 593.718 200.015 593.633 200.323 593.462C200.635 593.291 200.869 593.062 201.026 592.773V591.279H200.066C199.407 591.279 198.911 591.394 198.579 591.624C198.247 591.853 198.081 592.178 198.081 592.598C198.081 592.939 198.194 593.213 198.418 593.418C198.648 593.618 198.953 593.718 199.334 593.718ZM208.225 593.726C208.669 593.726 209.038 593.596 209.331 593.337C209.624 593.079 209.78 592.759 209.8 592.378H211.477C211.458 592.871 211.304 593.333 211.016 593.762C210.728 594.187 210.337 594.524 209.844 594.773C209.351 595.022 208.818 595.146 208.247 595.146C207.139 595.146 206.26 594.788 205.61 594.07C204.961 593.352 204.636 592.361 204.636 591.096V590.913C204.636 589.707 204.958 588.743 205.603 588.02C206.248 587.292 207.126 586.929 208.24 586.929C209.182 586.929 209.949 587.205 210.54 587.756C211.135 588.303 211.448 589.023 211.477 589.917H209.8C209.78 589.463 209.624 589.089 209.331 588.796C209.043 588.503 208.674 588.357 208.225 588.357C207.649 588.357 207.205 588.567 206.892 588.987C206.58 589.402 206.421 590.034 206.416 590.884V591.169C206.416 592.029 206.57 592.671 206.877 593.096C207.19 593.516 207.639 593.726 208.225 593.726ZM216.377 593.726C216.821 593.726 217.19 593.596 217.483 593.337C217.776 593.079 217.932 592.759 217.951 592.378H219.629C219.609 592.871 219.455 593.333 219.167 593.762C218.879 594.187 218.488 594.524 217.995 594.773C217.502 595.022 216.97 595.146 216.399 595.146C215.29 595.146 214.411 594.788 213.762 594.07C213.113 593.352 212.788 592.361 212.788 591.096V590.913C212.788 589.707 213.11 588.743 213.755 588.02C214.399 587.292 215.278 586.929 216.391 586.929C217.334 586.929 218.1 587.205 218.691 587.756C219.287 588.303 219.599 589.023 219.629 589.917H217.951C217.932 589.463 217.776 589.089 217.483 588.796C217.195 588.503 216.826 588.357 216.377 588.357C215.8 588.357 215.356 588.567 215.044 588.987C214.731 589.402 214.572 590.034 214.568 590.884V591.169C214.568 592.029 214.721 592.671 215.029 593.096C215.342 593.516 215.791 593.726 216.377 593.726ZM220.939 590.964C220.939 590.188 221.093 589.49 221.401 588.87C221.708 588.245 222.141 587.766 222.697 587.434C223.254 587.097 223.893 586.929 224.616 586.929C225.685 586.929 226.552 587.273 227.216 587.961C227.885 588.65 228.246 589.563 228.3 590.701L228.308 591.118C228.308 591.899 228.156 592.598 227.853 593.213C227.556 593.828 227.126 594.304 226.564 594.641C226.008 594.978 225.363 595.146 224.631 595.146C223.513 595.146 222.617 594.775 221.943 594.033C221.274 593.286 220.939 592.292 220.939 591.052V590.964ZM222.719 591.118C222.719 591.934 222.888 592.573 223.225 593.037C223.561 593.496 224.03 593.726 224.631 593.726C225.231 593.726 225.698 593.491 226.03 593.022C226.367 592.554 226.535 591.868 226.535 590.964C226.535 590.164 226.362 589.529 226.015 589.06C225.673 588.591 225.207 588.357 224.616 588.357C224.035 588.357 223.574 588.589 223.232 589.053C222.89 589.512 222.719 590.2 222.719 591.118ZM234.914 594.224C234.391 594.839 233.649 595.146 232.687 595.146C231.828 595.146 231.176 594.895 230.732 594.392C230.292 593.889 230.072 593.162 230.072 592.209V587.075H231.852V592.188C231.852 593.193 232.27 593.696 233.105 593.696C233.969 593.696 234.552 593.386 234.855 592.766V587.075H236.635V595H234.958L234.914 594.224ZM240.399 587.075L240.45 587.991C241.036 587.283 241.805 586.929 242.758 586.929C244.408 586.929 245.248 587.874 245.277 589.763V595H243.497V589.866C243.497 589.363 243.387 588.992 243.168 588.752C242.953 588.508 242.599 588.386 242.106 588.386C241.388 588.386 240.853 588.711 240.502 589.36V595H238.722V587.075H240.399ZM249.627 585.149V587.075H251.026V588.394H249.627V592.817C249.627 593.12 249.686 593.34 249.803 593.477C249.925 593.608 250.14 593.674 250.448 593.674C250.653 593.674 250.86 593.65 251.07 593.601V594.978C250.665 595.09 250.274 595.146 249.898 595.146C248.531 595.146 247.848 594.392 247.848 592.883V588.394H246.544V587.075H247.848V585.149H249.627ZM254.344 591.865C254.344 591.216 254.425 590.698 254.586 590.312C254.747 589.927 255.064 589.504 255.538 589.045C256.016 588.582 256.319 588.252 256.446 588.057C256.641 587.759 256.739 587.437 256.739 587.09C256.739 586.631 256.624 586.282 256.395 586.042C256.17 585.798 255.838 585.676 255.399 585.676C254.979 585.676 254.639 585.796 254.381 586.035C254.127 586.27 254 586.589 254 586.995H252.22C252.23 586.13 252.523 585.447 253.099 584.944C253.68 584.441 254.446 584.189 255.399 584.189C256.38 584.189 257.144 584.438 257.691 584.937C258.243 585.435 258.519 586.13 258.519 587.024C258.519 587.82 258.148 588.604 257.405 589.375L256.505 590.261C256.182 590.627 256.016 591.162 256.007 591.865H254.344ZM254.219 594.143C254.219 593.855 254.31 593.623 254.49 593.447C254.671 593.267 254.915 593.176 255.223 593.176C255.535 593.176 255.782 593.269 255.963 593.455C256.143 593.635 256.234 593.865 256.234 594.143C256.234 594.412 256.146 594.636 255.97 594.817C255.794 594.998 255.545 595.088 255.223 595.088C254.901 595.088 254.652 594.998 254.476 594.817C254.305 594.636 254.219 594.412 254.219 594.143Z" fill="#AEA9A9"/>
<path d="M268.765 592.847C268.765 592.529 268.633 592.288 268.369 592.122C268.11 591.956 267.678 591.809 267.073 591.682C266.467 591.555 265.962 591.394 265.557 591.199C264.668 590.769 264.224 590.146 264.224 589.331C264.224 588.647 264.512 588.076 265.088 587.617C265.664 587.158 266.397 586.929 267.285 586.929C268.233 586.929 268.997 587.163 269.578 587.632C270.164 588.101 270.457 588.708 270.457 589.456H268.677C268.677 589.114 268.55 588.831 268.296 588.606C268.042 588.376 267.705 588.262 267.285 588.262C266.895 588.262 266.575 588.352 266.326 588.533C266.082 588.713 265.96 588.955 265.96 589.258C265.96 589.531 266.074 589.744 266.304 589.895C266.533 590.046 266.997 590.2 267.695 590.356C268.394 590.508 268.941 590.691 269.336 590.906C269.736 591.116 270.032 591.37 270.222 591.667C270.418 591.965 270.515 592.327 270.515 592.751C270.515 593.464 270.22 594.043 269.629 594.487C269.038 594.927 268.264 595.146 267.307 595.146C266.658 595.146 266.079 595.029 265.571 594.795C265.064 594.561 264.668 594.238 264.385 593.828C264.102 593.418 263.96 592.976 263.96 592.502H265.689C265.713 592.922 265.872 593.247 266.165 593.477C266.458 593.701 266.846 593.813 267.329 593.813C267.798 593.813 268.154 593.726 268.399 593.55C268.643 593.369 268.765 593.135 268.765 592.847ZM274.265 595H272.485V587.075H274.265V595ZM272.375 585.017C272.375 584.744 272.461 584.517 272.632 584.336C272.807 584.155 273.056 584.065 273.379 584.065C273.701 584.065 273.95 584.155 274.126 584.336C274.302 584.517 274.389 584.744 274.389 585.017C274.389 585.286 274.302 585.51 274.126 585.691C273.95 585.867 273.701 585.955 273.379 585.955C273.056 585.955 272.807 585.867 272.632 585.691C272.461 585.51 272.375 585.286 272.375 585.017ZM276.198 590.979C276.198 589.749 276.486 588.767 277.062 588.035C277.644 587.297 278.413 586.929 279.37 586.929C280.273 586.929 280.983 587.244 281.501 587.874L281.582 587.075H283.186V594.758C283.186 595.798 282.861 596.619 282.211 597.219C281.567 597.82 280.695 598.12 279.597 598.12C279.016 598.12 278.447 597.998 277.89 597.754C277.338 597.515 276.918 597.2 276.63 596.809L277.473 595.74C278.02 596.389 278.693 596.714 279.494 596.714C280.085 596.714 280.551 596.553 280.893 596.23C281.235 595.913 281.406 595.444 281.406 594.824V594.29C280.893 594.861 280.209 595.146 279.355 595.146C278.427 595.146 277.668 594.778 277.077 594.041C276.491 593.303 276.198 592.283 276.198 590.979ZM277.971 591.133C277.971 591.929 278.132 592.556 278.454 593.015C278.781 593.469 279.233 593.696 279.809 593.696C280.527 593.696 281.059 593.389 281.406 592.773V589.287C281.069 588.687 280.542 588.386 279.824 588.386C279.238 588.386 278.781 588.618 278.454 589.082C278.132 589.546 277.971 590.229 277.971 591.133ZM286.972 587.075L287.023 587.991C287.609 587.283 288.378 586.929 289.33 586.929C290.981 586.929 291.821 587.874 291.85 589.763V595H290.07V589.866C290.07 589.363 289.96 588.992 289.74 588.752C289.526 588.508 289.172 588.386 288.678 588.386C287.961 588.386 287.426 588.711 287.074 589.36V595H285.295V587.075H286.972ZM302.806 594.224C302.284 594.839 301.542 595.146 300.58 595.146C299.72 595.146 299.068 594.895 298.624 594.392C298.185 593.889 297.965 593.162 297.965 592.209V587.075H299.745V592.188C299.745 593.193 300.162 593.696 300.997 593.696C301.861 593.696 302.445 593.386 302.748 592.766V587.075H304.527V595H302.85L302.806 594.224ZM313.58 591.118C313.58 592.344 313.302 593.323 312.745 594.055C312.188 594.783 311.441 595.146 310.504 595.146C309.635 595.146 308.939 594.861 308.416 594.29V598.047H306.637V587.075H308.277L308.35 587.881C308.873 587.246 309.583 586.929 310.482 586.929C311.449 586.929 312.205 587.29 312.752 588.013C313.304 588.73 313.58 589.729 313.58 591.008V591.118ZM311.807 590.964C311.807 590.173 311.649 589.546 311.331 589.082C311.019 588.618 310.57 588.386 309.984 588.386C309.256 588.386 308.734 588.687 308.416 589.287V592.803C308.739 593.418 309.266 593.726 309.998 593.726C310.565 593.726 311.007 593.499 311.324 593.044C311.646 592.585 311.807 591.892 311.807 590.964Z" fill="#267FF3"/>
<path d="M196.786 844V837.394H195.577V836.075H196.786V835.35C196.786 834.471 197.03 833.792 197.518 833.314C198.006 832.835 198.69 832.596 199.569 832.596C199.881 832.596 200.213 832.64 200.565 832.728L200.521 834.12C200.326 834.081 200.099 834.061 199.84 834.061C198.99 834.061 198.565 834.498 198.565 835.372V836.075H200.177V837.394H198.565V844H196.786ZM205.926 837.701C205.692 837.662 205.45 837.643 205.201 837.643C204.385 837.643 203.836 837.955 203.553 838.58V844H201.773V836.075H203.472L203.516 836.961C203.946 836.273 204.542 835.929 205.303 835.929C205.557 835.929 205.767 835.963 205.933 836.031L205.926 837.701ZM206.753 839.964C206.753 839.188 206.907 838.49 207.215 837.87C207.522 837.245 207.954 836.766 208.511 836.434C209.068 836.097 209.707 835.929 210.43 835.929C211.499 835.929 212.366 836.273 213.03 836.961C213.699 837.65 214.06 838.563 214.114 839.701L214.121 840.118C214.121 840.899 213.97 841.598 213.667 842.213C213.369 842.828 212.94 843.304 212.378 843.641C211.822 843.978 211.177 844.146 210.445 844.146C209.326 844.146 208.43 843.775 207.757 843.033C207.088 842.286 206.753 841.292 206.753 840.052V839.964ZM208.533 840.118C208.533 840.934 208.701 841.573 209.038 842.037C209.375 842.496 209.844 842.726 210.445 842.726C211.045 842.726 211.512 842.491 211.844 842.022C212.18 841.554 212.349 840.868 212.349 839.964C212.349 839.164 212.176 838.529 211.829 838.06C211.487 837.591 211.021 837.357 210.43 837.357C209.849 837.357 209.388 837.589 209.046 838.053C208.704 838.512 208.533 839.2 208.533 840.118ZM217.6 836.075L217.651 836.903C218.208 836.253 218.97 835.929 219.937 835.929C220.996 835.929 221.721 836.334 222.112 837.145C222.688 836.334 223.499 835.929 224.543 835.929C225.417 835.929 226.067 836.17 226.492 836.654C226.921 837.137 227.141 837.85 227.151 838.792V844H225.371V838.844C225.371 838.341 225.261 837.972 225.042 837.738C224.822 837.503 224.458 837.386 223.95 837.386C223.545 837.386 223.213 837.496 222.954 837.716C222.7 837.931 222.522 838.214 222.419 838.565L222.427 844H220.647V838.785C220.623 837.853 220.146 837.386 219.219 837.386C218.506 837.386 218 837.677 217.703 838.258V844H215.923V836.075H217.6Z" fill="#AEA9A9"/>
<path d="M174.046 852.46V856.585H179.476V857.545H174.046V862H172.936V851.5H180.136V852.46H174.046ZM188.815 859.195H182.965L181.705 862H180.55L185.35 851.5H186.445L191.245 862H190.075L188.815 859.195ZM188.41 858.295L185.89 852.655L183.37 858.295H188.41ZM197.695 862.09C196.655 862.09 195.715 861.86 194.875 861.4C194.045 860.94 193.39 860.305 192.91 859.495C192.44 858.675 192.205 857.76 192.205 856.75C192.205 855.74 192.44 854.83 192.91 854.02C193.39 853.2 194.05 852.56 194.89 852.1C195.73 851.64 196.67 851.41 197.71 851.41C198.49 851.41 199.21 851.54 199.87 851.8C200.53 852.06 201.09 852.44 201.55 852.94L200.845 853.645C200.025 852.815 198.99 852.4 197.74 852.4C196.91 852.4 196.155 852.59 195.475 852.97C194.795 853.35 194.26 853.87 193.87 854.53C193.49 855.19 193.3 855.93 193.3 856.75C193.3 857.57 193.49 858.31 193.87 858.97C194.26 859.63 194.795 860.15 195.475 860.53C196.155 860.91 196.91 861.1 197.74 861.1C199 861.1 200.035 860.68 200.845 859.84L201.55 860.545C201.09 861.045 200.525 861.43 199.855 861.7C199.195 861.96 198.475 862.09 197.695 862.09ZM211.642 861.04V862H204.217V851.5H211.417V852.46H205.327V856.195H210.757V857.14H205.327V861.04H211.642ZM221.166 856.585C221.856 856.735 222.386 857.035 222.756 857.485C223.136 857.925 223.326 858.495 223.326 859.195C223.326 860.095 222.991 860.79 222.321 861.28C221.661 861.76 220.681 862 219.381 862H214.551V851.5H219.081C220.251 851.5 221.156 851.735 221.796 852.205C222.446 852.675 222.771 853.34 222.771 854.2C222.771 854.78 222.626 855.275 222.336 855.685C222.056 856.085 221.666 856.385 221.166 856.585ZM215.661 852.415V856.225H219.006C219.856 856.225 220.511 856.065 220.971 855.745C221.431 855.415 221.661 854.94 221.661 854.32C221.661 853.7 221.431 853.23 220.971 852.91C220.511 852.58 219.856 852.415 219.006 852.415H215.661ZM219.366 861.085C220.306 861.085 221.016 860.925 221.496 860.605C221.976 860.285 222.216 859.785 222.216 859.105C222.216 857.795 221.266 857.14 219.366 857.14H215.661V861.085H219.366ZM230.749 862.09C229.709 862.09 228.764 861.86 227.914 861.4C227.074 860.93 226.414 860.29 225.934 859.48C225.464 858.67 225.229 857.76 225.229 856.75C225.229 855.74 225.464 854.83 225.934 854.02C226.414 853.21 227.074 852.575 227.914 852.115C228.764 851.645 229.709 851.41 230.749 851.41C231.789 851.41 232.724 851.64 233.554 852.1C234.394 852.56 235.054 853.2 235.534 854.02C236.014 854.83 236.254 855.74 236.254 856.75C236.254 857.76 236.014 858.675 235.534 859.495C235.054 860.305 234.394 860.94 233.554 861.4C232.724 861.86 231.789 862.09 230.749 862.09ZM230.749 861.1C231.579 861.1 232.329 860.915 232.999 860.545C233.669 860.165 234.194 859.645 234.574 858.985C234.954 858.315 235.144 857.57 235.144 856.75C235.144 855.93 234.954 855.19 234.574 854.53C234.194 853.86 233.669 853.34 232.999 852.97C232.329 852.59 231.579 852.4 230.749 852.4C229.919 852.4 229.164 852.59 228.484 852.97C227.814 853.34 227.284 853.86 226.894 854.53C226.514 855.19 226.324 855.93 226.324 856.75C226.324 857.57 226.514 858.315 226.894 858.985C227.284 859.645 227.814 860.165 228.484 860.545C229.164 860.915 229.919 861.1 230.749 861.1ZM243.632 862.09C242.592 862.09 241.647 861.86 240.797 861.4C239.957 860.93 239.297 860.29 238.817 859.48C238.347 858.67 238.112 857.76 238.112 856.75C238.112 855.74 238.347 854.83 238.817 854.02C239.297 853.21 239.957 852.575 240.797 852.115C241.647 851.645 242.592 851.41 243.632 851.41C244.672 851.41 245.607 851.64 246.437 852.1C247.277 852.56 247.937 853.2 248.417 854.02C248.897 854.83 249.137 855.74 249.137 856.75C249.137 857.76 248.897 858.675 248.417 859.495C247.937 860.305 247.277 860.94 246.437 861.4C245.607 861.86 244.672 862.09 243.632 862.09ZM243.632 861.1C244.462 861.1 245.212 860.915 245.882 860.545C246.552 860.165 247.077 859.645 247.457 858.985C247.837 858.315 248.027 857.57 248.027 856.75C248.027 855.93 247.837 855.19 247.457 854.53C247.077 853.86 246.552 853.34 245.882 852.97C245.212 852.59 244.462 852.4 243.632 852.4C242.802 852.4 242.047 852.59 241.367 852.97C240.697 853.34 240.167 853.86 239.777 854.53C239.397 855.19 239.207 855.93 239.207 856.75C239.207 857.57 239.397 858.315 239.777 858.985C240.167 859.645 240.697 860.165 241.367 860.545C242.047 860.915 242.802 861.1 243.632 861.1ZM255.18 857.065L253.035 859.24V862H251.925V851.5H253.035V857.845L259.2 851.5H260.475L255.93 856.255L260.79 862H259.47L255.18 857.065Z" fill="#070000"/>
<path d="M174.719 62.085H169.173V66.6201H175.615V68H167.485V55.2031H175.527V56.5918H169.173V60.7051H174.719V62.085ZM178.999 58.4902L179.052 59.6855C179.778 58.7715 180.728 58.3145 181.899 58.3145C183.909 58.3145 184.923 59.4482 184.94 61.7158V68H183.314V61.707C183.309 61.0215 183.15 60.5146 182.84 60.1865C182.535 59.8584 182.058 59.6943 181.407 59.6943C180.88 59.6943 180.417 59.835 180.019 60.1162C179.62 60.3975 179.31 60.7666 179.087 61.2236V68H177.461V58.4902H178.999ZM187.006 63.166C187.006 61.6836 187.349 60.5059 188.034 59.6328C188.72 58.7539 189.628 58.3145 190.759 58.3145C191.919 58.3145 192.824 58.7246 193.475 59.5449L193.554 58.4902H195.039V67.7715C195.039 69.002 194.673 69.9717 193.94 70.6807C193.214 71.3896 192.235 71.7441 191.005 71.7441C190.319 71.7441 189.648 71.5977 188.992 71.3047C188.336 71.0117 187.835 70.6104 187.489 70.1006L188.333 69.125C189.03 69.9863 189.883 70.417 190.891 70.417C191.682 70.417 192.297 70.1943 192.736 69.749C193.182 69.3037 193.404 68.6768 193.404 67.8682V67.0508C192.754 67.8008 191.866 68.1758 190.741 68.1758C189.628 68.1758 188.726 67.7275 188.034 66.8311C187.349 65.9346 187.006 64.7129 187.006 63.166ZM188.641 63.3506C188.641 64.4229 188.86 65.2666 189.3 65.8818C189.739 66.4912 190.354 66.7959 191.146 66.7959C192.171 66.7959 192.924 66.3301 193.404 65.3984V61.0566C192.906 60.1484 192.159 59.6943 191.163 59.6943C190.372 59.6943 189.754 60.002 189.309 60.6172C188.863 61.2324 188.641 62.1436 188.641 63.3506ZM199.267 68H197.641V54.5H199.267V68ZM203.644 68H202.018V58.4902H203.644V68ZM201.886 55.9678C201.886 55.7041 201.965 55.4814 202.123 55.2998C202.287 55.1182 202.527 55.0273 202.844 55.0273C203.16 55.0273 203.4 55.1182 203.564 55.2998C203.729 55.4814 203.811 55.7041 203.811 55.9678C203.811 56.2314 203.729 56.4512 203.564 56.627C203.4 56.8027 203.16 56.8906 202.844 56.8906C202.527 56.8906 202.287 56.8027 202.123 56.627C201.965 56.4512 201.886 56.2314 201.886 55.9678ZM211.791 65.4775C211.791 65.0381 211.624 64.6982 211.29 64.458C210.962 64.2119 210.385 64.001 209.559 63.8252C208.738 63.6494 208.085 63.4385 207.599 63.1924C207.118 62.9463 206.761 62.6533 206.526 62.3135C206.298 61.9736 206.184 61.5693 206.184 61.1006C206.184 60.3213 206.512 59.6621 207.168 59.123C207.83 58.584 208.674 58.3145 209.699 58.3145C210.777 58.3145 211.65 58.5928 212.318 59.1494C212.992 59.7061 213.329 60.418 213.329 61.2852H211.694C211.694 60.8398 211.504 60.4561 211.123 60.1338C210.748 59.8115 210.273 59.6504 209.699 59.6504C209.107 59.6504 208.645 59.7793 208.311 60.0371C207.977 60.2949 207.81 60.6318 207.81 61.0479C207.81 61.4404 207.965 61.7363 208.275 61.9355C208.586 62.1348 209.146 62.3252 209.954 62.5068C210.769 62.6885 211.428 62.9053 211.932 63.1572C212.436 63.4092 212.808 63.7139 213.048 64.0713C213.294 64.4229 213.417 64.8535 213.417 65.3633C213.417 66.2129 213.077 66.8955 212.397 67.4111C211.718 67.9209 210.836 68.1758 209.752 68.1758C208.99 68.1758 208.316 68.041 207.73 67.7715C207.145 67.502 206.685 67.127 206.351 66.6465C206.022 66.1602 205.858 65.6357 205.858 65.0732H207.484C207.514 65.6182 207.73 66.0518 208.135 66.374C208.545 66.6904 209.084 66.8486 209.752 66.8486C210.367 66.8486 210.859 66.7256 211.229 66.4795C211.604 66.2275 211.791 65.8936 211.791 65.4775ZM217.161 59.6416C217.882 58.7568 218.819 58.3145 219.974 58.3145C221.983 58.3145 222.997 59.4482 223.015 61.7158V68H221.389V61.707C221.383 61.0215 221.225 60.5146 220.914 60.1865C220.609 59.8584 220.132 59.6943 219.481 59.6943C218.954 59.6943 218.491 59.835 218.093 60.1162C217.694 60.3975 217.384 60.7666 217.161 61.2236V68H215.535V54.5H217.161V59.6416Z" fill="#C5C5C5"/>
<path fill-rule="evenodd" clip-rule="evenodd" d="M229.553 59.8934C229.612 59.7382 229.716 59.6202 229.842 59.5653C229.968 59.5104 230.105 59.5232 230.223 59.6007L236 63.3899L241.776 59.5994C241.835 59.56 241.899 59.5363 241.965 59.5296C242.031 59.5228 242.097 59.5333 242.159 59.5603C242.222 59.5873 242.28 59.6303 242.33 59.6869C242.38 59.7434 242.421 59.8124 242.451 59.8898C242.48 59.9673 242.498 60.0516 242.502 60.138C242.507 60.2244 242.498 60.3111 242.477 60.3932C242.456 60.4753 242.423 60.5511 242.38 60.6162C242.336 60.6814 242.283 60.7346 242.224 60.7728L236.224 64.7103C236.155 64.756 236.078 64.7798 236 64.7798C235.922 64.7798 235.846 64.756 235.776 64.7103L229.776 60.7728C229.658 60.6948 229.568 60.5585 229.526 60.3936C229.484 60.2288 229.494 60.0489 229.553 59.8934Z" fill="#C5C5C5"/>
<g clip-path="url(#clip3_0_1)">
<path d="M127 253C127 244.163 119.837 237 111 237C102.163 237 95 244.163 95 253C95 260.986 100.851 267.605 108.5 268.806V257.625H104.438V253H108.5V249.475C108.5 245.465 110.889 243.25 114.543 243.25C116.294 243.25 118.125 243.563 118.125 243.563V247.5H116.107C114.12 247.5 113.5 248.733 113.5 249.999V253H117.938L117.228 257.625H113.5V268.806C121.149 267.605 127 260.986 127 253Z" fill="#1877F2"/>
<path d="M117.228 257.625L117.938 253H113.5V249.999C113.5 248.733 114.12 247.5 116.107 247.5H118.125V243.562C118.125 243.562 116.294 243.25 114.543 243.25C110.889 243.25 108.5 245.465 108.5 249.475V253H104.438V257.625H108.5V268.806C110.157 269.065 111.843 269.065 113.5 268.806V257.625H117.228Z" fill="white"/>
</g>
</g>
<defs>
<clipPath id="clip0_0_1">
<rect width="414" height="896" fill="white"/>
</clipPath>
<clipPath id="clip1_0_1">
<rect width="194" height="50" fill="white" transform="translate(110 122)"/>
</clipPath>
<clipPath id="clip2_0_1">
<rect x="78" y="239.207" width="53.3413" height="29.7926" rx="8.82745" fill="white"/>
</clipPath>
<clipPath id="clip3_0_1">
<rect width="32" height="32" fill="white" transform="translate(95 237)"/>
</clipPath>
</defs>
</svg>
