<svg width="24" height="25" viewBox="0 0 24 25" fill="none" xmlns="http://www.w3.org/2000/svg">
<path d="M13.2695 0.646406C13.5624 0.353556 14.0372 0.353527 14.3301 0.646406C14.5963 0.912675 14.6202 1.32937 14.4023 1.62297L14.3301 1.70695L12.5381 3.49895H15.2363C14.9689 3.96095 14.7668 4.46552 14.6426 4.99992H6.5C3.73858 4.99992 1.5 7.2385 1.5 9.99992V18.4999C1.5 21.2613 3.73858 23.4999 6.5 23.4999H15.5C18.2614 23.4999 20.5 21.2613 20.5 18.4999L20.501 11.7275C21.0257 11.6801 21.5292 11.5592 22.001 11.3749L22 18.4999C22 22.0898 19.0899 24.9999 15.5 24.9999H6.5C2.91015 24.9999 0 22.0898 0 18.4999V9.99992C2.06162e-06 6.41007 2.91015 3.49992 6.5 3.49992H9.46191L7.66992 1.70695C7.4037 1.44068 7.37981 1.02399 7.59766 0.730391L7.66992 0.646406C7.93619 0.38014 8.35287 0.356286 8.64648 0.574141L8.73047 0.646406L11 2.91594L13.2695 0.646406ZM10.7148 12.2704C11.1589 12.1527 11.5951 12.4571 11.6514 12.8984L11.6572 12.995V14.8603L16.5889 13.6034C16.9902 13.5012 17.3986 13.7432 17.501 14.1445C17.5947 14.5123 17.399 14.8867 17.0566 15.0253L16.959 15.0566L11.0928 16.5527C10.6503 16.6655 10.2187 16.3606 10.1631 15.9218L10.1572 15.8251V13.9696L5.42188 15.2245C5.02164 15.3304 4.61103 15.0925 4.50488 14.6923C4.4076 14.3253 4.60027 13.9493 4.94141 13.8075L5.03809 13.7753L10.7148 12.2704Z" fill="#262626"/>
<path fill-rule="evenodd" clip-rule="evenodd" d="M20 10.25C22.2091 10.25 24 8.45914 24 6.25C24 4.04086 22.2091 2.25 20 2.25C17.7909 2.25 16 4.04086 16 6.25C16 8.45914 17.7909 10.25 20 10.25Z" fill="#ED4956"/>
</svg>
